Chordira.sfdir
StartChar: quotedbl
Encoding: 34 34 2
Width: 600
Flags: W
LayerCount: 2
Fore
SplineSet
164 739 m 1,0,-1
 269 739 l 1,1,-1
 253 479 l 1,2,-1
 179 479 l 1,3,-1
 164 739 l 1,0,-1
331 739 m 1,4,-1
 436 739 l 1,5,-1
 421 479 l 1,6,-1
 347 479 l 1,7,-1
 331 739 l 1,4,-1
EndSplineSet
EndChar
StartChar: quotesingle
Encoding: 39 39 7
Width: 600
VWidth: 1000
Flags: W
LayerCount: 2
Fore
SplineSet
247 739 m 1,0,-1
 353 739 l 1,1,-1
 337 479 l 1,2,-1
 263 479 l 1,3,-1
 247 739 l 1,0,-1
EndSplineSet
Validated: 1
EndChar
StartChar: plus
Encoding: 43 43 11
Width: 600
Flags: W
LayerCount: 2
Fore
SplineSet
338 346 m 1,0,-1
 484 346 l 1,1,-1
 484 276 l 1,2,-1
 338 276 l 1,3,-1
 338 127 l 1,4,-1
 260 127 l 1,5,-1
 260 276 l 1,6,-1
 116 276 l 1,7,-1
 116 346 l 1,8,-1
 260 346 l 1,9,-1
 260 495 l 1,10,-1
 338 495 l 1,11,-1
 338 346 l 1,0,-1
EndSplineSet
EndChar
StartChar: hyphen
Encoding: 45 45 13
Width: 600
VWidth: 1000
Flags: W
LayerCount: 2
Fore
SplineSet
125 349 m 1,0,-1
 475 349 l 1,1,-1
 475 277 l 1,2,-1
 125 277 l 1,3,-1
 125 349 l 1,0,-1
EndSplineSet
Validated: 1
EndChar
StartChar: slash
Encoding: 47 47 15
Width: 600
Flags: W
LayerCount: 2
Fore
SplineSet
53 -73 m 1,0,-1
 480 809 l 1,1,-1
 547 777 l 1,2,-1
 121 -103 l 1,3,-1
 53 -73 l 1,0,-1
EndSplineSet
EndChar
StartChar: three
Encoding: 51 51 19
Width: 600
VWidth: 1000
Flags: W
LayerCount: 2
Fore
SplineSet
380 676.5 m 128,-1,1
 428 653 428 653 454 613.5 c 128,-1,2
 480 574 480 574 480 527 c 0,3,4
 480 467 480 467 441 422.5 c 128,-1,5
 402 378 402 378 346 367 c 1,6,7
 411 362 411 362 456.5 318 c 128,-1,8
 502 274 502 274 502 198 c 0,9,10
 502 139 502 139 472 91 c 128,-1,11
 442 43 442 43 387.5 16 c 128,-1,12
 333 -11 333 -11 263 -11 c 0,13,14
 202 -11 202 -11 145.5 12 c 128,-1,15
 89 35 89 35 52 80 c 1,16,-1
 108 126 l 1,17,18
 136 93 136 93 176.5 75.5 c 128,-1,19
 217 58 217 58 261 58 c 0,20,21
 333 58 333 58 373.5 95.5 c 128,-1,22
 414 133 414 133 414 198 c 0,23,24
 414 329 414 329 271 329 c 2,25,-1
 214 329 l 1,26,-1
 224 396 l 1,27,-1
 265 396 l 2,28,29
 319 396 319 396 357 426.5 c 128,-1,30
 395 457 395 457 395 516 c 0,31,32
 395 571 395 571 358.5 601.5 c 128,-1,33
 322 632 322 632 265 632 c 0,34,35
 222 632 222 632 188.5 617 c 128,-1,36
 155 602 155 602 119 569 c 1,37,-1
 73 620 l 1,38,39
 157 700 157 700 269 700 c 0,40,0
 332 700 332 700 380 676.5 c 128,-1,1
EndSplineSet
Validated: 1
EndChar
StartChar: five
Encoding: 53 53 21
Width: 600
Flags: W
LayerCount: 2
Fore
SplineSet
475 621 m 1,0,-1
 203 621 l 1,1,-1
 203 404 l 1,2,3
 232 421 232 421 260.5 427.5 c 128,-1,4
 289 434 289 434 321 434 c 0,5,6
 407 434 407 434 458.5 377 c 128,-1,7
 510 320 510 320 510 218 c 0,8,9
 510 150 510 150 481.5 98 c 128,-1,10
 453 46 453 46 400 17.5 c 128,-1,11
 347 -11 347 -11 277 -11 c 0,12,13
 162 -11 162 -11 77 71 c 1,14,-1
 129 122 l 1,15,16
 192 58 192 58 277 58 c 0,17,18
 346 58 346 58 384 100 c 128,-1,19
 422 142 422 142 422 221 c 0,20,21
 422 299 422 299 388 333.5 c 128,-1,22
 354 368 354 368 297 368 c 0,23,24
 270 368 270 368 248 363 c 128,-1,25
 226 358 226 358 190 345 c 1,26,-1
 122 345 l 1,27,-1
 122 689 l 1,28,-1
 487 689 l 1,29,-1
 475 621 l 1,0,-1
EndSplineSet
EndChar
StartChar: colon
Encoding: 58 58 26
Width: 600
Flags: W
LayerCount: 2
Fore
SplineSet
242 487.5 m 128,-1,1
 265 511 265 511 299 511 c 0,2,3
 334 511 334 511 357 487.5 c 128,-1,4
 380 464 380 464 380 431 c 0,5,6
 380 397 380 397 357 373 c 128,-1,7
 334 349 334 349 299 349 c 0,8,9
 265 349 265 349 242 373 c 128,-1,10
 219 397 219 397 219 431 c 0,11,0
 219 464 219 464 242 487.5 c 128,-1,1
242 127 m 128,-1,13
 265 151 265 151 299 151 c 0,14,15
 334 151 334 151 357 127.5 c 128,-1,16
 380 104 380 104 380 70 c 0,17,18
 380 35 380 35 357 12 c 128,-1,19
 334 -11 334 -11 299 -11 c 0,20,21
 265 -11 265 -11 242 12 c 128,-1,22
 219 35 219 35 219 70 c 0,23,12
 219 103 219 103 242 127 c 128,-1,13
EndSplineSet
EndChar
StartChar: semicolon
Encoding: 59 59 27
Width: 600
Flags: W
LayerCount: 2
Fore
SplineSet
357 487.5 m 128,-1,1
 380 464 380 464 380 431 c 0,2,3
 380 397 380 397 357 373 c 128,-1,4
 334 349 334 349 299 349 c 0,5,6
 265 349 265 349 242 373 c 128,-1,7
 219 397 219 397 219 431 c 0,8,9
 219 464 219 464 242 487.5 c 128,-1,10
 265 511 265 511 299 511 c 0,11,0
 334 511 334 511 357 487.5 c 128,-1,1
356.5 142.5 m 128,-1,13
 380 119 380 119 380 85 c 0,14,15
 380 49 380 49 361 6 c 2,16,-1
 279 -180 l 1,17,-1
 203 -180 l 1,18,-1
 251 18 l 1,19,20
 236 29 236 29 227.5 47 c 128,-1,21
 219 65 219 65 219 85 c 0,22,23
 219 119 219 119 242 142.5 c 128,-1,24
 265 166 265 166 299 166 c 256,25,12
 333 166 333 166 356.5 142.5 c 128,-1,13
EndSplineSet
EndChar
StartChar: less
Encoding: 60 60 28
Width: 600
VWidth: 1000
Flags: W
LayerCount: 2
Fore
SplineSet
513 530 m 1,0,-1
 160 313 l 1,1,-1
 513 94 l 1,2,-1
 468 33 l 1,3,-1
 88 270 l 1,4,-1
 88 357 l 1,5,-1
 472 594 l 1,6,-1
 513 530 l 1,0,-1
EndSplineSet
Validated: 1
EndChar
StartChar: equal
Encoding: 61 61 29
Width: 600
Flags: W
LayerCount: 2
Fore
SplineSet
494 370 m 1,0,-1
 106 370 l 1,1,-1
 106 442 l 1,2,-1
 494 442 l 1,3,-1
 494 370 l 1,0,-1
494 180 m 1,4,-1
 106 180 l 1,5,-1
 106 252 l 1,6,-1
 494 252 l 1,7,-1
 494 180 l 1,4,-1
EndSplineSet
EndChar
StartChar: greater
Encoding: 62 62 30
Width: 600
VWidth: 1000
Flags: W
LayerCount: 2
Fore
SplineSet
513 356 m 1,0,-1
 513 270 l 1,1,-1
 133 33 l 1,2,-1
 88 95 l 1,3,-1
 441 313 l 1,4,-1
 88 530 l 1,5,-1
 129 594 l 1,6,-1
 513 356 l 1,0,-1
EndSplineSet
Validated: 1
EndChar
StartChar: A
Encoding: 65 65 33
Width: 600
Flags: W
LayerCount: 2
Fore
SplineSet
161 176 m 1,0,-1
 106 0 l 1,1,-1
 20 0 l 1,2,-1
 245 689 l 1,3,-1
 355 689 l 1,4,-1
 579 0 l 1,5,-1
 489 0 l 1,6,-1
 434 176 l 1,7,-1
 161 176 l 1,0,-1
411 248 m 1,8,-1
 298 615 l 1,9,-1
 184 248 l 1,10,-1
 411 248 l 1,8,-1
EndSplineSet
EndChar
StartChar: E
Encoding: 69 69 37
Width: 600
VWidth: 1000
Flags: W
LayerCount: 2
Fore
SplineSet
212 385 m 1,0,-1
 468 385 l 1,1,-1
 468 314 l 1,2,-1
 212 314 l 1,3,-1
 212 70 l 1,4,-1
 526 70 l 1,5,-1
 526 0 l 1,6,-1
 126 0 l 1,7,-1
 126 689 l 1,8,-1
 517 689 l 1,9,-1
 507 617 l 1,10,-1
 212 617 l 1,11,-1
 212 385 l 1,0,-1
EndSplineSet
Validated: 1
EndChar
StartChar: F
Encoding: 70 70 38
Width: 600
VWidth: 1000
Flags: W
LayerCount: 2
Fore
SplineSet
225 376 m 1,0,-1
 495 376 l 1,1,-1
 495 306 l 1,2,-1
 225 306 l 1,3,-1
 225 0 l 1,4,-1
 138 0 l 1,5,-1
 138 689 l 1,6,-1
 544 689 l 1,7,-1
 534 617 l 1,8,-1
 225 617 l 1,9,-1
 225 376 l 1,0,-1
EndSplineSet
Validated: 1
EndChar
StartChar: K
Encoding: 75 75 43
Width: 600
VWidth: 1000
Flags: W
LayerCount: 2
Fore
SplineSet
105 0 m 1,0,-1
 105 689 l 1,1,-1
 192 689 l 1,2,-1
 192 0 l 1,3,-1
 105 0 l 1,0,-1
467 689 m 1,4,-1
 568 689 l 1,5,-1
 299 373 l 1,6,-1
 587 0 l 1,7,-1
 478 0 l 1,8,-1
 197 368 l 1,9,-1
 467 689 l 1,4,-1
EndSplineSet
Validated: 1
EndChar
StartChar: L
Encoding: 76 76 44
Width: 600
Flags: W
LayerCount: 2
Fore
SplineSet
136 689 m 1,0,-1
 222 689 l 1,1,-1
 222 77 l 1,2,-1
 537 77 l 1,3,-1
 526 0 l 1,4,-1
 136 0 l 1,5,-1
 136 689 l 1,0,-1
EndSplineSet
EndChar
StartChar: N
Encoding: 78 78 46
Width: 600
VWidth: 1000
Flags: W
LayerCount: 2
Fore
SplineSet
152 605 m 1,0,1
 152 598 152 598 158 518 c 128,-1,2
 164 438 164 438 164 345 c 2,3,-1
 164 0 l 1,4,-1
 83 0 l 1,5,-1
 83 689 l 1,6,-1
 201 689 l 1,7,-1
 448 81 l 1,8,-1
 446 117 l 2,9,10
 436 240 436 240 436 344 c 2,11,-1
 436 689 l 1,12,-1
 517 689 l 1,13,-1
 517 0 l 1,14,-1
 395 0 l 1,15,-1
 152 605 l 1,0,1
EndSplineSet
Validated: 1
EndChar
StartChar: Q
Encoding: 81 81 49
Width: 600
Flags: W
LayerCount: 2
Fore
SplineSet
520.5 148.5 m 128,-1,1
 487 69 487 69 411 27 c 1,2,3
 485 12 485 12 526.5 -25 c 128,-1,4
 568 -62 568 -62 593 -137 c 1,5,-1
 501 -173 l 1,6,7
 467 -88 467 -88 421 -49 c 128,-1,8
 375 -10 375 -10 290 -10 c 0,9,10
 212 -10 212 -10 157 33.5 c 128,-1,11
 102 77 102 77 73.5 156.5 c 128,-1,12
 45 236 45 236 45 343 c 0,13,14
 45 448 45 448 74 529 c 128,-1,15
 103 610 103 610 160.5 655 c 128,-1,16
 218 700 218 700 300 700 c 0,17,18
 422 700 422 700 488 603.5 c 128,-1,19
 554 507 554 507 554 344 c 0,20,0
 554 228 554 228 520.5 148.5 c 128,-1,1
424 556 m 128,-1,22
 385 627 385 627 300 627 c 256,23,24
 215 627 215 627 175.5 555.5 c 128,-1,25
 136 484 136 484 136 343 c 0,26,27
 136 203 136 203 176 132.5 c 128,-1,28
 216 62 216 62 300 62 c 0,29,30
 385 62 385 62 424 132.5 c 128,-1,31
 463 203 463 203 463 344 c 256,32,21
 463 485 463 485 424 556 c 128,-1,22
EndSplineSet
EndChar
StartChar: T
Encoding: 84 84 52
Width: 600
VWidth: 1000
Flags: W
LayerCount: 2
Fore
SplineSet
342 0 m 1,0,-1
 255 0 l 1,1,-1
 255 614 l 1,2,-1
 40 614 l 1,3,-1
 40 689 l 1,4,-1
 559 689 l 1,5,-1
 550 614 l 1,6,-1
 342 614 l 1,7,-1
 342 0 l 1,0,-1
EndSplineSet
Validated: 1
EndChar
StartChar: V
Encoding: 86 86 54
Width: 600
Flags: W
LayerCount: 2
Fore
SplineSet
488 689 m 1,0,-1
 575 689 l 1,1,-1
 345 0 l 1,2,-1
 255 0 l 1,3,-1
 25 689 l 1,4,-1
 118 689 l 1,5,-1
 302 99 l 1,6,-1
 488 689 l 1,0,-1
EndSplineSet
EndChar
StartChar: W
Encoding: 87 87 55
Width: 600
Flags: W
LayerCount: 2
Fore
SplineSet
491 0 m 1,0,-1
 377 0 l 1,1,-1
 298 520 l 1,2,-1
 218 0 l 1,3,-1
 101 0 l 1,4,-1
 5 689 l 1,5,-1
 92 689 l 1,6,-1
 165 95 l 1,7,-1
 248 609 l 1,8,-1
 354 609 l 1,9,-1
 433 95 l 1,10,-1
 515 689 l 1,11,-1
 595 689 l 1,12,-1
 491 0 l 1,0,-1
EndSplineSet
EndChar
StartChar: X
Encoding: 88 88 56
Width: 600
Flags: W
LayerCount: 2
Fore
SplineSet
149 689 m 1,0,-1
 300 424 l 1,1,-1
 452 689 l 1,2,-1
 545 689 l 1,3,-1
 350 372 l 1,4,-1
 569 0 l 1,5,-1
 469 0 l 1,6,-1
 298 311 l 1,7,-1
 124 0 l 1,8,-1
 31 0 l 1,9,-1
 247 367 l 1,10,-1
 49 689 l 1,11,-1
 149 689 l 1,0,-1
EndSplineSet
EndChar
StartChar: Z
Encoding: 90 90 58
Width: 600
Flags: W
LayerCount: 2
Fore
SplineSet
527 75 m 1,0,-1
 517 0 l 1,1,-1
 72 0 l 1,2,-1
 72 70 l 1,3,-1
 435 614 l 1,4,-1
 108 614 l 1,5,-1
 108 689 l 1,6,-1
 528 689 l 1,7,-1
 528 617 l 1,8,-1
 167 75 l 1,9,-1
 527 75 l 1,0,-1
EndSplineSet
EndChar
StartChar: bracketright
Encoding: 93 93 61
Width: 600
Flags: W
LayerCount: 2
Fore
SplineSet
416 -115 m 1,0,-1
 165 -115 l 1,1,-1
 165 -44 l 1,2,-1
 336 -44 l 1,3,-1
 336 743 l 1,4,-1
 165 743 l 1,5,-1
 165 815 l 1,6,-1
 416 815 l 1,7,-1
 416 -115 l 1,0,-1
EndSplineSet
EndChar
StartChar: asciicircum
Encoding: 94 94 62
Width: 600
Flags: W
LayerCount: 2
Fore
SplineSet
526 527 m 1,0,-1
 435 527 l 1,1,-1
 299 764 l 1,2,-1
 164 527 l 1,3,-1
 74 527 l 1,4,-1
 263 840 l 1,5,-1
 337 840 l 1,6,-1
 526 527 l 1,0,-1
EndSplineSet
EndChar
StartChar: underscore
Encoding: 95 95 63
Width: 600
Flags: W
LayerCount: 2
Fore
SplineSet
50 -108 m 1,0,-1
 550 -108 l 1,1,-1
 550 -182 l 1,2,-1
 50 -182 l 1,3,-1
 50 -108 l 1,0,-1
EndSplineSet
EndChar
StartChar: a
Encoding: 97 97 65
Width: 600
Flags: W
LayerCount: 2
Fore
SplineSet
488 69.5 m 128,-1,1
 498 55 498 55 521 48 c 1,2,-1
 500 -12 l 1,3,4
 423 -2 423 -2 404 63 c 1,5,6
 376 27 376 27 333.5 8 c 128,-1,7
 291 -11 291 -11 239 -11 c 0,8,9
 160 -11 160 -11 114.5 33 c 128,-1,10
 69 77 69 77 69 151 c 0,11,12
 69 232 69 232 132.5 276 c 128,-1,13
 196 320 196 320 315 320 c 2,14,-1
 393 320 l 1,15,-1
 393 363 l 2,16,17
 393 419 393 419 361 443.5 c 128,-1,18
 329 468 329 468 268 468 c 0,19,20
 208 468 208 468 131 441 c 1,21,-1
 108 505 l 1,22,23
 201 538 201 538 281 538 c 0,24,25
 377 538 377 538 427.5 493 c 128,-1,26
 478 448 478 448 478 368 c 2,27,-1
 478 115 l 2,28,0
 478 84 478 84 488 69.5 c 128,-1,1
334.5 72 m 128,-1,30
 370 92 370 92 393 127 c 1,31,-1
 393 262 l 1,32,-1
 317 262 l 2,33,34
 233 262 233 262 196 234 c 128,-1,35
 159 206 159 206 159 152 c 0,36,37
 159 52 159 52 260 52 c 0,38,29
 299 52 299 52 334.5 72 c 128,-1,30
EndSplineSet
EndChar
StartChar: b
Encoding: 98 98 66
Width: 600
VWidth: 1000
Flags: W
LayerCount: 2
Fore
SplineSet
335 538 m 0,1,2
 436 538 436 538 484 466 c 128,-1,3
 532 394 532 394 532 264 c 0,4,5
 532 140 532 140 477 64.5 c 128,-1,6
 422 -11 422 -11 323 -11 c 0,7,8
 232 -11 232 -11 180 55 c 1,9,-1
 174 0 l 1,10,-1
 100 0 l 1,11,-1
 100 739 l 1,12,-1
 184 749 l 1,13,-1
 184 458 l 1,14,0
 245 538 245 538 335 538 c 0,1,2
405.5 109 m 128,-1,16
 441 161 441 161 441 264 c 0,17,18
 441 366 441 366 409.5 418 c 128,-1,19
 378 470 378 470 316 470 c 0,20,21
 276 470 276 470 242.5 446 c 128,-1,22
 209 422 209 422 184 386 c 1,23,-1
 184 125 l 1,24,25
 205 93 205 93 236 75 c 128,-1,26
 267 57 267 57 304 57 c 0,27,15
 370 57 370 57 405.5 109 c 128,-1,16
EndSplineSet
Validated: 1
EndChar
StartChar: d
Encoding: 100 100 68
Width: 600
Flags: W
LayerCount: 2
Fore
SplineSet
500 739 m 1,0,-1
 500 0 l 1,1,-1
 426 0 l 1,2,-1
 418 69 l 1,3,4
 389 29 389 29 351 9 c 128,-1,5
 313 -11 313 -11 269 -11 c 0,6,7
 169 -11 169 -11 118.5 62 c 128,-1,8
 68 135 68 135 68 263 c 0,9,10
 68 342 68 342 93 404.5 c 128,-1,11
 118 467 118 467 164.5 502.5 c 128,-1,12
 211 538 211 538 274 538 c 0,13,14
 361 538 361 538 416 475 c 1,15,-1
 416 749 l 1,16,-1
 500 739 l 1,0,-1
194.5 418 m 128,-1,18
 159 366 159 366 159 263 c 0,19,20
 159 161 159 161 191.5 108.5 c 128,-1,21
 224 56 224 56 286 56 c 0,22,23
 361 56 361 56 416 140 c 1,24,-1
 416 402 l 1,25,26
 394 435 394 435 363 452.5 c 128,-1,27
 332 470 332 470 296 470 c 0,28,17
 230 470 230 470 194.5 418 c 128,-1,18
EndSplineSet
EndChar
StartChar: f
Encoding: 102 102 70
Width: 600
Flags: W
LayerCount: 2
Fore
SplineSet
554 721 m 1,1,-1
 527 658 l 1,2,3
 477 680 477 680 414 680 c 0,4,5
 304 680 304 680 304 593 c 2,6,-1
 304 486 l 1,7,-1
 482 486 l 1,8,-1
 473 419 l 1,9,-1
 304 419 l 1,10,-1
 304 0 l 1,11,-1
 219 0 l 1,12,-1
 219 419 l 1,13,-1
 94 419 l 1,14,-1
 94 486 l 1,15,-1
 219 486 l 1,16,-1
 219 591 l 2,17,18
 219 662 219 662 273.5 705.5 c 128,-1,19
 328 749 328 749 411 749 c 0,20,0
 486 749 486 749 554 721 c 1,1,-1
EndSplineSet
EndChar
StartChar: h
Encoding: 104 104 72
Width: 600
VWidth: 1000
Flags: W
LayerCount: 2
Fore
SplineSet
184 454 m 1,0,1
 215 494 215 494 260 516 c 128,-1,2
 305 538 305 538 353 538 c 0,3,4
 501 538 501 538 501 382 c 2,5,-1
 501 0 l 1,6,-1
 417 0 l 1,7,-1
 417 381 l 2,8,9
 417 428 417 428 395 449.5 c 128,-1,10
 373 471 373 471 325 471 c 0,11,12
 284 471 284 471 246 445 c 128,-1,13
 208 419 208 419 184 384 c 1,14,-1
 184 0 l 1,15,-1
 100 0 l 1,16,-1
 100 738 l 1,17,-1
 184 747 l 1,18,-1
 184 454 l 1,0,1
EndSplineSet
Validated: 1
EndChar
StartChar: i
Encoding: 105 105 73
Width: 600
Flags: W
LayerCount: 2
Fore
SplineSet
345 756.5 m 128,-1,1
 362 740 362 740 362 714 c 256,2,3
 362 688 362 688 345 671.5 c 128,-1,4
 328 655 328 655 300 655 c 0,5,6
 273 655 273 655 256.5 671.5 c 128,-1,7
 240 688 240 688 240 714 c 256,8,9
 240 740 240 740 256.5 756.5 c 128,-1,10
 273 773 273 773 300 773 c 0,11,0
 328 773 328 773 345 756.5 c 128,-1,1
367 67 m 1,12,-1
 515 67 l 1,13,-1
 515 0 l 1,14,-1
 121 0 l 1,15,-1
 121 67 l 1,16,-1
 283 67 l 1,17,-1
 283 460 l 1,18,-1
 126 460 l 1,19,-1
 126 527 l 1,20,-1
 367 527 l 1,21,-1
 367 67 l 1,12,-1
EndSplineSet
EndChar
StartChar: k
Encoding: 107 107 75
Width: 600
VWidth: 1000
Flags: W
LayerCount: 2
Fore
SplineSet
190 0 m 1,0,-1
 106 0 l 1,1,-1
 106 739 l 1,2,-1
 190 749 l 1,3,-1
 190 0 l 1,0,-1
305 289 m 1,4,-1
 569 0 l 1,5,-1
 458 0 l 1,6,-1
 199 288 l 1,7,-1
 433 527 l 1,8,-1
 541 527 l 1,9,-1
 305 289 l 1,4,-1
EndSplineSet
Validated: 1
EndChar
StartChar: l
Encoding: 108 108 76
Width: 600
Flags: W
LayerCount: 2
Fore
SplineSet
306 130 m 2,0,1
 306 59 306 59 393 59 c 0,2,3
 434 59 434 59 481 77 c 1,4,-1
 503 16 l 1,5,6
 453 -11 453 -11 378 -11 c 0,7,8
 307 -11 307 -11 264.5 28 c 128,-1,9
 222 67 222 67 222 134 c 2,10,-1
 222 672 l 1,11,-1
 60 672 l 1,12,-1
 60 739 l 1,13,-1
 306 739 l 1,14,-1
 306 130 l 2,0,1
EndSplineSet
EndChar
StartChar: n
Encoding: 110 110 78
Width: 600
VWidth: 1000
Flags: W
LayerCount: 2
Fore
SplineSet
100 527 m 1,0,-1
 172 527 l 1,1,-1
 179 453 l 1,2,3
 210 493 210 493 257.5 515.5 c 128,-1,4
 305 538 305 538 353 538 c 0,5,6
 501 538 501 538 501 382 c 2,7,-1
 501 0 l 1,8,-1
 417 0 l 1,9,-1
 417 320 l 2,10,11
 417 379 417 379 410.5 410 c 128,-1,12
 404 441 404 441 385 456 c 128,-1,13
 366 471 366 471 327 471 c 0,14,15
 284 471 284 471 246 445 c 128,-1,16
 208 419 208 419 184 383 c 1,17,-1
 184 0 l 1,18,-1
 100 0 l 1,19,-1
 100 527 l 1,0,-1
EndSplineSet
Validated: 1
EndChar
StartChar: p
Encoding: 112 112 80
Width: 600
Flags: W
LayerCount: 2
Fore
SplineSet
527 264 m 0,1,2
 527 139 527 139 475 64 c 128,-1,3
 423 -11 423 -11 324 -11 c 0,4,5
 238 -11 238 -11 184 49 c 1,6,-1
 184 -202 l 1,7,-1
 100 -212 l 1,8,-1
 100 527 l 1,9,-1
 172 527 l 1,10,-1
 179 453 l 1,11,12
 208 494 208 494 248.5 516 c 128,-1,13
 289 538 289 538 336 538 c 0,14,0
 527 538 527 538 527 264 c 0,1,2
242.5 446 m 128,-1,16
 209 422 209 422 184 386 c 1,17,-1
 184 125 l 1,18,19
 205 94 205 94 236.5 76.5 c 128,-1,20
 268 59 268 59 305 59 c 0,21,22
 371 59 371 59 403.5 109.5 c 128,-1,23
 436 160 436 160 436 264 c 256,24,25
 436 368 436 368 407 419 c 128,-1,26
 378 470 378 470 316 470 c 0,27,15
 276 470 276 470 242.5 446 c 128,-1,16
EndSplineSet
EndChar
StartChar: q
Encoding: 113 113 81
Width: 600
Flags: W
LayerCount: 2
Fore
SplineSet
421 469 m 1,1,-1
 428 527 l 1,2,-1
 500 527 l 1,3,-1
 500 -212 l 1,4,-1
 416 -202 l 1,5,-1
 416 66 l 1,6,7
 360 -11 360 -11 267 -11 c 0,8,9
 73 -11 73 -11 73 263 c 0,10,11
 73 385 73 385 126 461.5 c 128,-1,12
 179 538 179 538 274 538 c 0,13,0
 366 538 366 538 421 469 c 1,1,-1
164 263 m 0,15,16
 164 160 164 160 194 109.5 c 128,-1,17
 224 59 224 59 285 59 c 0,18,19
 326 59 326 59 359 81.5 c 128,-1,20
 392 104 392 104 416 140 c 1,21,-1
 416 402 l 1,22,23
 395 434 395 434 363.5 452 c 128,-1,24
 332 470 332 470 295 470 c 0,25,14
 164 470 164 470 164 263 c 0,15,16
EndSplineSet
EndChar
StartChar: r
Encoding: 114 114 82
Width: 600
VWidth: 1000
Flags: W
LayerCount: 2
Fore
SplineSet
530 527 m 1,1,-1
 518 348 l 1,2,-1
 450 348 l 1,3,-1
 450 461 l 1,4,-1
 445 461 l 2,5,6
 323 461 323 461 272 287 c 1,7,-1
 272 65 l 1,8,-1
 379 65 l 1,9,-1
 379 0 l 1,10,-1
 105 0 l 1,11,-1
 105 65 l 1,12,-1
 188 65 l 1,13,-1
 188 462 l 1,14,-1
 105 462 l 1,15,-1
 105 527 l 1,16,-1
 251 527 l 1,17,-1
 267 402 l 1,18,19
 299 470 299 470 343.5 504 c 128,-1,20
 388 538 388 538 456 538 c 0,21,0
 488 538 488 538 530 527 c 1,1,-1
EndSplineSet
Validated: 1
EndChar
StartChar: u
Encoding: 117 117 85
Width: 600
VWidth: 1000
Flags: W
LayerCount: 2
Fore
SplineSet
184 153 m 2,0,1
 184 102 184 102 205.5 78.5 c 128,-1,2
 227 55 227 55 273 55 c 0,3,4
 315 55 315 55 354 79 c 128,-1,5
 393 103 393 103 416 139 c 1,6,-1
 416 527 l 1,7,-1
 500 527 l 1,8,-1
 500 0 l 1,9,-1
 428 0 l 1,10,-1
 421 71 l 1,11,12
 390 32 390 32 344.5 10.5 c 128,-1,13
 299 -11 299 -11 252 -11 c 0,14,15
 177 -11 177 -11 138.5 29 c 128,-1,16
 100 69 100 69 100 144 c 2,17,-1
 100 527 l 1,18,-1
 184 527 l 1,19,-1
 184 153 l 2,0,1
EndSplineSet
Validated: 1
EndChar
StartChar: v
Encoding: 118 118 86
Width: 600
VWidth: 1000
Flags: W
LayerCount: 2
Fore
SplineSet
348 0 m 1,0,-1
 251 0 l 1,1,-1
 60 527 l 1,2,-1
 150 527 l 1,3,-1
 302 76 l 1,4,-1
 452 527 l 1,5,-1
 540 527 l 1,6,-1
 348 0 l 1,0,-1
EndSplineSet
Validated: 1
EndChar
StartChar: w
Encoding: 119 119 87
Width: 600
Flags: W
LayerCount: 2
Fore
SplineSet
372 0 m 1,0,-1
 303 386 l 1,1,-1
 229 0 l 1,2,-1
 113 0 l 1,3,-1
 18 527 l 1,4,-1
 103 527 l 1,5,-1
 171 52 l 1,6,-1
 255 460 l 1,7,-1
 354 460 l 1,8,-1
 433 52 l 1,9,-1
 501 527 l 1,10,-1
 582 527 l 1,11,-1
 491 0 l 1,12,-1
 372 0 l 1,0,-1
EndSplineSet
EndChar
StartChar: x
Encoding: 120 120 88
Width: 600
Flags: W
LayerCount: 2
Fore
SplineSet
56 0 m 1,0,-1
 250 278 l 1,1,-1
 79 527 l 1,2,-1
 179 527 l 1,3,-1
 301 331 l 1,4,-1
 424 527 l 1,5,-1
 521 527 l 1,6,-1
 350 282 l 1,7,-1
 544 0 l 1,8,-1
 442 0 l 1,9,-1
 297 226 l 1,10,-1
 152 0 l 1,11,-1
 56 0 l 1,0,-1
EndSplineSet
EndChar
StartChar: z
Encoding: 122 122 90
Width: 600
Flags: W
LayerCount: 2
Fore
SplineSet
498 72 m 1,0,-1
 488 0 l 1,1,-1
 102 0 l 1,2,-1
 102 64 l 1,3,-1
 394 453 l 1,4,-1
 125 453 l 1,5,-1
 125 527 l 1,6,-1
 495 527 l 1,7,-1
 495 461 l 1,8,-1
 205 72 l 1,9,-1
 498 72 l 1,0,-1
EndSplineSet
EndChar
StartChar: bar
Encoding: 124 124 92
Width: 600
Flags: W
LayerCount: 2
Fore
SplineSet
337 -102 m 1,0,-1
 262 -102 l 1,1,-1
 262 807 l 1,2,-1
 337 807 l 1,3,-1
 337 -102 l 1,0,-1
EndSplineSet
EndChar
StartChar: rootA
Encoding: 128 63360 95
Width: 632
Flags: W
LayerCount: 2
Fore
SplineSet
424 149 m 1,0,-1
 223 149 l 1,1,-1
 168 0 l 1,2,-1
 0 0 l 1,3,-1
 303 693 l 1,4,-1
 499 693 l 1,5,-1
 607 0 l 1,6,-1
 438 0 l 1,7,-1
 424 149 l 1,0,-1
412 268 m 1,8,-1
 382 583 l 1,9,-1
 266 268 l 1,10,-1
 412 268 l 1,8,-1
EndSplineSet
Ligature2: "root letter-1" A
EndChar
StartChar: rootB
Encoding: 129 63361 96
Width: 607
Flags: W
LayerCount: 2
Fore
SplineSet
536 321.5 m 128,-1,1
 574 288 574 288 574 221 c 0,2,3
 574 121 574 121 497.5 60.5 c 128,-1,4
 421 0 421 0 248 0 c 2,5,-1
 27 0 l 1,6,-1
 124 693 l 1,7,-1
 327 693 l 2,8,9
 589 693 589 693 589 535 c 0,10,11
 589 466 589 466 546 424 c 128,-1,12
 503 382 503 382 437 366 c 1,13,0
 498 355 498 355 536 321.5 c 128,-1,1
394.5 444 m 128,-1,15
 423 472 423 472 423 518 c 0,16,17
 423 550 423 550 399.5 563.5 c 128,-1,18
 376 577 376 577 329 577 c 2,19,-1
 268 577 l 1,20,-1
 246 416 l 1,21,-1
 306 416 l 2,22,14
 366 416 366 416 394.5 444 c 128,-1,15
377 149 m 128,-1,24
 409 179 409 179 409 233 c 0,25,26
 409 307 409 307 304 307 c 2,27,-1
 230 307 l 1,28,-1
 204 119 l 1,29,-1
 262 119 l 2,30,23
 345 119 345 119 377 149 c 128,-1,24
EndSplineSet
Ligature2: "root letter-1" B
EndChar
StartChar: rootC
Encoding: 130 63362 97
Width: 600
VWidth: 1000
Flags: W
LayerCount: 2
Fore
SplineSet
600 628 m 1,1,-1
 513 543 l 1,2,3
 485 566 485 566 458 577.5 c 128,-1,4
 431 589 431 589 397 589 c 0,5,6
 329 589 329 589 286 537.5 c 128,-1,7
 243 486 243 486 224.5 412.5 c 128,-1,8
 206 339 206 339 206 269 c 0,9,10
 206 188 206 188 238 149 c 128,-1,11
 270 110 270 110 328 110 c 0,12,13
 365 110 365 110 397.5 125 c 128,-1,14
 430 140 430 140 468 168 c 1,15,-1
 531 71 l 1,16,17
 487 32 487 32 429.5 7.5 c 128,-1,18
 372 -17 372 -17 303 -17 c 0,19,20
 182 -17 182 -17 110.5 57.5 c 128,-1,21
 39 132 39 132 39 269 c 0,22,23
 39 373 39 373 76 474.5 c 128,-1,24
 113 576 113 576 193 643 c 128,-1,25
 273 710 273 710 395 710 c 0,26,0
 526 710 526 710 600 628 c 1,1,-1
EndSplineSet
Validated: 1
Ligature2: "root letter-1" C
EndChar
StartChar: rootD
Encoding: 131 63363 98
Width: 642
VWidth: 1000
Flags: W
LayerCount: 2
Fore
SplineSet
540.5 635.5 m 128,-1,1
 626 578 626 578 626 430 c 0,2,3
 626 241 626 241 533.5 120.5 c 128,-1,4
 441 0 441 0 234 0 c 2,5,-1
 27 0 l 1,6,-1
 124 693 l 1,7,-1
 312 693 l 2,8,0
 455 693 455 693 540.5 635.5 c 128,-1,1
269 574 m 1,9,-1
 205 118 l 1,10,-1
 258 118 l 2,11,12
 368 118 368 118 414.5 211.5 c 128,-1,13
 461 305 461 305 461 430 c 0,14,15
 461 513 461 513 425 543.5 c 128,-1,16
 389 574 389 574 322 574 c 2,17,-1
 269 574 l 1,9,-1
EndSplineSet
Validated: 1
Ligature2: "root letter-1" D
EndChar
StartChar: rootE
Encoding: 132 63364 99
Width: 543
VWidth: 1000
Flags: W
LayerCount: 2
Fore
SplineSet
509 576 m 1,0,-1
 269 576 l 1,1,-1
 245 410 l 1,2,-1
 455 410 l 1,3,-1
 440 295 l 1,4,-1
 230 295 l 1,5,-1
 205 118 l 1,6,-1
 462 118 l 1,7,-1
 446 0 l 1,8,-1
 27 0 l 1,9,-1
 124 693 l 1,10,-1
 543 693 l 1,11,-1
 509 576 l 1,0,-1
EndSplineSet
Validated: 1
Ligature2: "root letter-1" E
EndChar
StartChar: rootF
Encoding: 133 63365 100
Width: 531
Flags: W
LayerCount: 2
Fore
SplineSet
498 576 m 1,0,-1
 269 576 l 1,1,-1
 243 392 l 1,2,-1
 443 392 l 1,3,-1
 427 275 l 1,4,-1
 227 275 l 1,5,-1
 188 0 l 1,6,-1
 27 0 l 1,7,-1
 124 693 l 1,8,-1
 531 693 l 1,9,-1
 498 576 l 1,0,-1
EndSplineSet
Ligature2: "root letter-1" F
EndChar
StartChar: rootG
Encoding: 134 63366 101
Width: 636
VWidth: 1000
Flags: W
LayerCount: 2
Fore
SplineSet
636 622 m 1,1,-1
 546 541 l 1,2,3
 512 568 512 568 483 579.5 c 128,-1,4
 454 591 454 591 415 591 c 0,5,6
 338 591 338 591 291 538.5 c 128,-1,7
 244 486 244 486 224 407.5 c 128,-1,8
 204 329 204 329 204 245 c 0,9,10
 204 169 204 169 232 136 c 128,-1,11
 260 103 260 103 317 103 c 0,12,13
 366 103 366 103 414 126 c 1,14,-1
 436 283 l 1,15,-1
 348 283 l 1,16,-1
 349 399 l 1,17,-1
 609 399 l 1,18,-1
 562 56 l 1,19,20
 506 21 506 21 439.5 2 c 128,-1,21
 373 -17 373 -17 307 -17 c 0,22,23
 174 -17 174 -17 106 53.5 c 128,-1,24
 38 124 38 124 38 259 c 0,25,26
 38 371 38 371 77.5 474 c 128,-1,27
 117 577 117 577 202.5 643.5 c 128,-1,28
 288 710 288 710 417 710 c 0,29,0
 553 710 553 710 636 622 c 1,1,-1
EndSplineSet
Validated: 1
Ligature2: "root letter-1" G
EndChar
StartChar: Delta
Encoding: 136 63368 116
Width: 583
Flags: W
LayerCount: 2
Fore
SplineSet
577 0 m 5,0,-1
 6 0 l 5,1,-1
 232 689 l 5,2,-1
 352 689 l 5,3,-1
 577 0 l 5,0,-1
125 78 m 5,4,-1
 454 78 l 5,5,-1
 290 609 l 5,6,-1
 125 78 l 5,4,-1
EndSplineSet
Ligature2: "chord spec-1letter" asciicircum
EndChar
StartChar: M_1
Encoding: 138 63370 118
Width: 778
VWidth: 1000
Flags: W
LayerCount: 2
Fore
SplineSet
716 0 m 1,0,-1
 624 0 l 1,1,-1
 600 311 l 2,2,3
 585 494 585 494 583 592 c 1,4,-1
 434 78 l 1,5,-1
 345 78 l 1,6,-1
 188 593 l 1,7,8
 188 468 188 468 175 304 c 2,9,-1
 152 0 l 1,10,-1
 62 0 l 1,11,-1
 119 689 l 1,12,-1
 247 689 l 1,13,-1
 392 188 l 1,14,-1
 530 689 l 1,15,-1
 659 689 l 1,16,-1
 716 0 l 1,0,-1
EndSplineSet
Validated: 1
Ligature2: "chord spec-1letter" M
EndChar
StartChar: m_1
Encoding: 140 63372 120
Width: 850
Flags: W
LayerCount: 2
Fore
SplineSet
725 495.5 m 132,-1,1
 764 452 764 452 764 378 c 6,2,-1
 764 0 l 5,3,-1
 672 0 l 5,4,-1
 672 365 l 6,5,6
 672 467 672 467 598 467 c 4,7,8
 559 467 559 467 532 444.5 c 132,-1,9
 505 422 505 422 474 374 c 5,10,-1
 474 0 l 5,11,-1
 382 0 l 5,12,-1
 382 365 l 6,13,14
 382 467 382 467 308 467 c 4,15,16
 268 467 268 467 241 444 c 132,-1,17
 214 421 214 421 184 374 c 5,18,-1
 184 0 l 5,19,-1
 92 0 l 5,20,-1
 92 527 l 5,21,-1
 171 527 l 5,22,-1
 179 450 l 5,23,24
 238 539 238 539 331 539 c 4,25,26
 380 539 380 539 414.5 514 c 132,-1,27
 449 489 449 489 464 444 c 5,28,29
 495 490 495 490 532.5 514.5 c 132,-1,30
 570 539 570 539 621 539 c 4,31,0
 686 539 686 539 725 495.5 c 132,-1,1
EndSplineSet
Ligature2: "chord spec-1letter" m
EndChar
StartChar: minus
Encoding: 141 63373 121
Width: 506
Flags: W
HStem: 0 66 644 66
VStem: 1 66 645 66
LayerCount: 2
Fore
SplineSet
505 345 m 1,0,-1
 505 268 l 1,1,-1
 1 268 l 1,2,-1
 1 345 l 1,3,-1
 505 345 l 1,0,-1
EndSplineSet
Substitution2: "Single Substitution 1-1" highminus
Ligature2: "chord spec-1letter" hyphen
EndChar
StartChar: zerosup
Encoding: 144 63376 109
Width: 606
VWidth: 1174
Flags: W
LayerCount: 2
Fore
SplineSet
439 713.5 m 128,-1,1
 499 679 499 679 532.5 613 c 128,-1,2
 566 547 566 547 566 456 c 256,3,4
 566 365 566 365 532.5 298.5 c 128,-1,5
 499 232 499 232 439 197 c 128,-1,6
 379 162 379 162 303 162 c 256,7,8
 227 162 227 162 167 197 c 128,-1,9
 107 232 107 232 73.5 298.5 c 128,-1,10
 40 365 40 365 40 456 c 256,11,12
 40 547 40 547 73.5 613 c 128,-1,13
 107 679 107 679 167 713.5 c 128,-1,14
 227 748 227 748 303 748 c 256,15,0
 379 748 379 748 439 713.5 c 128,-1,1
182 621.5 m 128,-1,17
 133 568 133 568 133 456 c 0,18,19
 133 343 133 343 182 289 c 128,-1,20
 231 235 231 235 303 235 c 256,21,22
 375 235 375 235 424 289 c 128,-1,23
 473 343 473 343 473 456 c 0,24,25
 473 568 473 568 424 621.5 c 128,-1,26
 375 675 375 675 303 675 c 256,27,16
 231 675 231 675 182 621.5 c 128,-1,17
EndSplineSet
Validated: 1
Ligature2: "chord spec-1letter" zero
EndChar
StartChar: onesup
Encoding: 145 63377 106
Width: 423
VWidth: 1174
Flags: W
LayerCount: 2
Fore
SplineSet
323 174 m 1,0,-1
 231 174 l 1,1,-1
 231 640 l 1,2,-1
 75 545 l 1,3,-1
 35 610 l 1,4,-1
 242 738 l 1,5,-1
 323 738 l 1,6,-1
 323 174 l 1,0,-1
EndSplineSet
Validated: 1
Ligature2: "chord spec-1letter" one
EndChar
StartChar: twosup
Encoding: 146 63378 107
Width: 496
VWidth: 1174
Flags: W
LayerCount: 2
Fore
SplineSet
332.5 725 m 128,-1,1
 380 702 380 702 405.5 661.5 c 128,-1,2
 431 621 431 621 431 571 c 0,3,4
 431 519 431 519 412.5 478.5 c 128,-1,5
 394 438 394 438 333.5 384 c 128,-1,6
 273 330 273 330 148 251 c 1,7,-1
 441 251 l 1,8,-1
 430 174 l 1,9,-1
 29 174 l 1,10,-1
 29 247 l 1,11,12
 167 345 167 345 230.5 399.5 c 128,-1,13
 294 454 294 454 314 489.5 c 128,-1,14
 334 525 334 525 334 568 c 0,15,16
 334 616 334 616 302.5 644.5 c 128,-1,17
 271 673 271 673 221 673 c 0,18,19
 179 673 179 673 144 655 c 128,-1,20
 109 637 109 637 74 594 c 1,21,-1
 15 642 l 1,22,23
 57 695 57 695 107.5 721.5 c 128,-1,24
 158 748 158 748 223 748 c 0,25,0
 285 748 285 748 332.5 725 c 128,-1,1
EndSplineSet
Validated: 1
Ligature2: "chord spec-1letter" two
EndChar
StartChar: threesup
Encoding: 147 63379 108
Width: 488
VWidth: 1174
Flags: W
LayerCount: 2
Fore
SplineSet
330 725 m 128,-1,1
 375 702 375 702 398.5 664 c 128,-1,2
 422 626 422 626 422 581 c 0,3,4
 422 523 422 523 385.5 483 c 128,-1,5
 349 443 349 443 290 430 c 1,6,7
 361 422 361 422 402 380 c 128,-1,8
 443 338 443 338 443 261 c 0,9,10
 443 203 443 203 414.5 156.5 c 128,-1,11
 386 110 386 110 333.5 83.5 c 128,-1,12
 281 57 281 57 211 57 c 0,13,14
 150 57 150 57 99 79.5 c 128,-1,15
 48 102 48 102 10 147 c 1,16,-1
 65 198 l 1,17,18
 98 164 98 164 132.5 148 c 128,-1,19
 167 132 167 132 208 132 c 0,20,21
 274 132 274 132 310.5 167.5 c 128,-1,22
 347 203 347 203 347 266 c 0,23,24
 347 331 347 331 312.5 360.5 c 128,-1,25
 278 390 278 390 210 390 c 2,26,-1
 160 390 l 1,27,-1
 171 461 l 1,28,-1
 205 461 l 2,29,30
 259 461 259 461 294.5 491 c 128,-1,31
 330 521 330 521 330 574 c 0,32,33
 330 620 330 620 299 647 c 128,-1,34
 268 674 268 674 215 674 c 0,35,36
 176 674 176 674 143.5 660 c 128,-1,37
 111 646 111 646 77 614 c 1,38,-1
 29 669 l 1,39,40
 72 709 72 709 119.5 728.5 c 128,-1,41
 167 748 167 748 223 748 c 0,42,0
 285 748 285 748 330 725 c 128,-1,1
EndSplineSet
Ligature2: "chord spec-1letter" three
EndChar
StartChar: foursup
Encoding: 148 63380 110
Width: 492
VWidth: 1174
Flags: W
LayerCount: 2
Fore
SplineSet
496 214 m 1,0,-1
 412 214 l 1,1,-1
 412 67 l 1,2,-1
 325 67 l 1,3,-1
 325 214 l 1,4,-1
 20 214 l 1,5,-1
 20 278 l 1,6,-1
 221 748 l 1,7,-1
 298 716 l 1,8,-1
 117 285 l 1,9,-1
 326 285 l 1,10,-1
 334 467 l 1,11,-1
 412 467 l 1,12,-1
 412 285 l 1,13,-1
 496 285 l 1,14,-1
 496 214 l 1,0,-1
EndSplineSet
Validated: 1
Ligature2: "chord spec-1letter" four
EndChar
StartChar: fivesup
Encoding: 149 63381 111
Width: 490
VWidth: 1174
Flags: W
LayerCount: 2
Fore
SplineSet
414 666 m 1,0,-1
 153 666 l 1,1,-1
 153 469 l 1,2,3
 202 495 202 495 260 495 c 0,4,5
 346 495 346 495 398 438.5 c 128,-1,6
 450 382 450 382 450 283 c 0,7,8
 450 217 450 217 421 165.5 c 128,-1,9
 392 114 392 114 339.5 85.5 c 128,-1,10
 287 57 287 57 218 57 c 0,11,12
 157 57 157 57 109 78.5 c 128,-1,13
 61 100 61 100 20 142 c 1,14,-1
 74 195 l 1,15,16
 106 163 106 163 140 147.5 c 128,-1,17
 174 132 174 132 217 132 c 0,18,19
 281 132 281 132 317.5 172 c 128,-1,20
 354 212 354 212 354 285 c 256,21,22
 354 358 354 358 321 391 c 128,-1,23
 288 424 288 424 232 424 c 0,24,25
 185 424 185 424 137 401 c 1,26,-1
 65 401 l 1,27,-1
 65 738 l 1,28,-1
 427 738 l 1,29,-1
 414 666 l 1,0,-1
EndSplineSet
Validated: 1
Ligature2: "chord spec-1letter" five
EndChar
StartChar: sixsup
Encoding: 150 63382 112
Width: 540
VWidth: 1069
Flags: W
LayerCount: 2
Fore
SplineSet
406 485 m 128,-1,1
 449 461 449 461 474.5 413 c 128,-1,2
 500 365 500 365 500 296 c 0,3,4
 500 225 500 225 471 170.5 c 128,-1,5
 442 116 442 116 393 86.5 c 128,-1,6
 344 57 344 57 284 57 c 0,7,8
 164 57 164 57 109.5 143.5 c 128,-1,9
 55 230 55 230 55 383 c 0,10,11
 55 493 55 493 85.5 575 c 128,-1,12
 116 657 116 657 174.5 702.5 c 128,-1,13
 233 748 233 748 313 748 c 0,14,15
 392 748 392 748 453 707 c 1,16,-1
 417 646 l 1,17,18
 367 675 367 675 313 675 c 0,19,20
 237 675 237 675 193.5 606 c 128,-1,21
 150 537 150 537 147 419 c 1,22,23
 210 509 210 509 312 509 c 0,24,0
 363 509 363 509 406 485 c 128,-1,1
375 174 m 128,-1,26
 407 218 407 218 407 293 c 0,27,28
 407 436 407 436 296 436 c 0,29,30
 251 436 251 436 213.5 411 c 128,-1,31
 176 386 176 386 148 343 c 1,32,33
 151 233 151 233 183 181.5 c 128,-1,34
 215 130 215 130 284 130 c 0,35,25
 343 130 343 130 375 174 c 128,-1,26
EndSplineSet
Ligature2: "chord spec-1letter" six
EndChar
StartChar: sevensup
Encoding: 151 63383 113
Width: 449
VWidth: 1174
Flags: W
LayerCount: 2
Fore
SplineSet
414 669 m 1,0,-1
 169 55 l 1,1,-1
 85 83 l 1,2,-1
 321 663 l 1,3,-1
 15 663 l 1,4,-1
 15 738 l 1,5,-1
 414 738 l 1,6,-1
 414 669 l 1,0,-1
EndSplineSet
Validated: 1
Ligature2: "chord spec-1letter" seven
EndChar
StartChar: eightsup
Encoding: 152 63384 114
Width: 551
VWidth: 1069
Flags: W
LayerCount: 2
Fore
SplineSet
506 248 m 0,1,2
 506 193 506 193 476.5 149.5 c 128,-1,3
 447 106 447 106 394 81.5 c 128,-1,4
 341 57 341 57 274 57 c 0,5,6
 206 57 206 57 154 81 c 128,-1,7
 102 105 102 105 73.5 148 c 128,-1,8
 45 191 45 191 45 246 c 0,9,10
 45 308 45 308 78.5 350 c 128,-1,11
 112 392 112 392 177 420 c 1,12,13
 124 447 124 447 98.5 485.5 c 128,-1,14
 73 524 73 524 73 576 c 0,15,16
 73 630 73 630 101.5 669 c 128,-1,17
 130 708 130 708 176.5 728 c 128,-1,18
 223 748 223 748 276 748 c 0,19,20
 328 748 328 748 374.5 729 c 128,-1,21
 421 710 421 710 450 671.5 c 128,-1,22
 479 633 479 633 479 579 c 0,23,24
 479 529 479 529 451 493 c 128,-1,25
 423 457 423 457 365 428 c 1,26,0
 506 371 506 371 506 248 c 0,1,2
193.5 652 m 128,-1,28
 163 625 163 625 163 575 c 0,29,30
 163 527 163 527 192.5 502 c 128,-1,31
 222 477 222 477 287 456 c 2,32,-1
 304 450 l 1,33,34
 349 476 349 476 369 505 c 128,-1,35
 389 534 389 534 389 576 c 0,36,37
 389 623 389 623 359.5 651 c 128,-1,38
 330 679 330 679 276 679 c 0,39,27
 224 679 224 679 193.5 652 c 128,-1,28
373.5 162 m 128,-1,41
 410 194 410 194 410 247 c 0,42,43
 410 283 410 283 396 307.5 c 128,-1,44
 382 332 382 332 351 350.5 c 128,-1,45
 320 369 320 369 264 388 c 2,46,-1
 239 397 l 1,47,48
 189 373 189 373 165 336.5 c 128,-1,49
 141 300 141 300 141 246 c 0,50,51
 141 191 141 191 177 160.5 c 128,-1,52
 213 130 213 130 275 130 c 256,53,40
 337 130 337 130 373.5 162 c 128,-1,41
EndSplineSet
Validated: 1
Ligature2: "chord spec-1letter" eight
EndChar
StartChar: ninesup
Encoding: 153 63385 115
Width: 525
VWidth: 1174
Flags: W
LayerCount: 2
Fore
SplineSet
420 678.5 m 128,-1,1
 475 609 475 609 475 489 c 0,2,3
 475 360 475 360 438 277.5 c 128,-1,4
 401 195 401 195 324 143.5 c 128,-1,5
 247 92 247 92 119 55 c 1,6,-1
 98 124 l 1,7,8
 227 160 227 160 300 227 c 128,-1,9
 373 294 373 294 380 392 c 1,10,11
 357 358 357 358 317.5 336.5 c 128,-1,12
 278 315 278 315 230 315 c 0,13,14
 178 315 178 315 136 341 c 128,-1,15
 94 367 94 367 69.5 416 c 128,-1,16
 45 465 45 465 45 529 c 0,17,18
 45 596 45 596 74 645.5 c 128,-1,19
 103 695 103 695 151.5 721.5 c 128,-1,20
 200 748 200 748 259 748 c 0,21,0
 365 748 365 748 420 678.5 c 128,-1,1
382 469 m 1,23,24
 384 578 384 578 354.5 626.5 c 128,-1,25
 325 675 325 675 261 675 c 0,26,27
 202 675 202 675 170 636 c 128,-1,28
 138 597 138 597 138 527 c 0,29,30
 138 458 138 458 168 422.5 c 128,-1,31
 198 387 198 387 249 387 c 0,32,22
 328 387 328 387 382 469 c 1,23,24
EndSplineSet
Ligature2: "chord spec-1letter" nine
EndChar
StartChar: augment
Encoding: 155 63387 129
Width: 506
VWidth: 1000
Flags: W
HStem: 0 66 644 66
VStem: 1 66 645 66
LayerCount: 2
Fore
SplineSet
505 345 m 1,0,-1
 505 268 l 1,1,-1
 291 268 l 1,2,-1
 291 54 l 1,3,-1
 215 54 l 1,4,-1
 215 268 l 1,5,-1
 1 268 l 1,6,-1
 1 345 l 1,7,-1
 215 345 l 1,8,-1
 215 558 l 1,9,-1
 291 558 l 1,10,-1
 291 345 l 1,11,-1
 505 345 l 1,0,-1
EndSplineSet
Validated: 1
Ligature2: "chord spec-1letter" plus
EndChar
StartChar: circ
Encoding: 157 63389 132
Width: 619
VWidth: 1000
Flags: W
LayerCount: 2
Fore
SplineSet
443.5 588 m 132,-1,1
 501 554 501 554 532.5 488.5 c 132,-1,2
 564 423 564 423 564 331 c 260,3,4
 564 239 564 239 532.5 172.5 c 132,-1,5
 501 106 501 106 443.5 71.5 c 132,-1,6
 386 37 386 37 310 37 c 260,7,8
 234 37 234 37 176.5 71 c 132,-1,9
 119 105 119 105 87 171 c 132,-1,10
 55 237 55 237 55 330 c 4,11,12
 55 420 55 420 87 486 c 132,-1,13
 119 552 119 552 176.5 587 c 132,-1,14
 234 622 234 622 310 622 c 260,15,0
 386 622 386 622 443.5 588 c 132,-1,1
193.5 495.5 m 132,-1,17
 152 442 152 442 152 330 c 4,18,19
 152 216 152 216 194 163 c 132,-1,20
 236 110 236 110 310 110 c 4,21,22
 467 110 467 110 467 331 c 4,23,24
 467 549 467 549 310 549 c 4,25,16
 235 549 235 549 193.5 495.5 c 132,-1,17
EndSplineSet
Validated: 1
Ligature2: "chord spec-1letter" o
EndChar
StartChar: halfdim
Encoding: 158 63390 131
Width: 619
VWidth: 1000
Flags: W
LayerCount: 2
Fore
SplineSet
530 494 m 128,-1,1
 564 427 564 427 564 331 c 0,2,3
 564 239 564 239 532.5 172.5 c 128,-1,4
 501 106 501 106 443.5 71.5 c 128,-1,5
 386 37 386 37 310 37 c 0,6,7
 283 37 283 37 255 42 c 1,8,-1
 223 -58 l 1,9,-1
 149 -38 l 1,10,-1
 184 67 l 1,11,12
 123 100 123 100 89 167 c 128,-1,13
 55 234 55 234 55 330 c 0,14,15
 55 421 55 421 87 487 c 128,-1,16
 119 553 119 553 176.5 587.5 c 128,-1,17
 234 622 234 622 310 622 c 0,18,19
 335 622 335 622 363 617 c 1,20,-1
 397 721 l 1,21,-1
 471 702 l 1,22,-1
 435 594 l 1,23,0
 496 561 496 561 530 494 c 128,-1,1
152 330 m 0,25,26
 152 185 152 185 217 136 c 1,27,-1
 349 546 l 1,28,29
 331 549 331 549 310 549 c 0,30,24
 152 549 152 549 152 330 c 0,25,26
467 331 m 0,32,33
 467 409 467 409 450.5 456 c 128,-1,34
 434 503 434 503 402 525 c 1,35,-1
 270 114 l 1,36,37
 287 110 287 110 310 110 c 0,38,31
 467 110 467 110 467 331 c 0,32,33
EndSplineSet
Validated: 1
Ligature2: "chord spec-1letter" O
EndChar
StartChar: R1
Encoding: 160 63392 103
Width: 293
VWidth: 1000
Flags: W
LayerCount: 2
Fore
SplineSet
229 0 m 1,0,-1
 65 0 l 1,1,-1
 65 693 l 1,2,-1
 229 693 l 1,3,-1
 229 0 l 1,0,-1
EndSplineSet
Validated: 1
LCarets2: 1 0
Ligature2: "roman root-1" R one
EndChar
StartChar: R2
Encoding: 161 63393 104
Width: 538
Flags: W
LayerCount: 2
Fore
SplineSet
484 693 m 1,0,-1
 484 0 l 1,1,-1
 324 0 l 1,2,-1
 324 693 l 1,3,-1
 484 693 l 1,0,-1
215 693 m 1,4,-1
 215 0 l 1,5,-1
 55 0 l 1,6,-1
 55 693 l 1,7,-1
 215 693 l 1,4,-1
EndSplineSet
Ligature2: "roman root-1" R two
EndChar
StartChar: R3
Encoding: 162 63394 105
Width: 750
Flags: W
LayerCount: 2
Fore
SplineSet
703 693 m 5,0,-1
 703 0 l 5,1,-1
 546 0 l 5,2,-1
 546 693 l 5,3,-1
 703 693 l 5,0,-1
453 693 m 1,4,-1
 453 0 l 1,5,-1
 296 0 l 1,6,-1
 296 693 l 1,7,-1
 453 693 l 1,4,-1
203 693 m 1,8,-1
 203 0 l 1,9,-1
 46 0 l 1,10,-1
 46 693 l 1,11,-1
 203 693 l 1,8,-1
EndSplineSet
Ligature2: "roman root-1" R three
EndChar
StartChar: R4
Encoding: 163 63395 124
Width: 805
Flags: W
LayerCount: 2
Fore
SplineSet
805 693 m 1,0,-1
 636 0 l 1,1,-1
 434 0 l 1,2,-1
 258 693 l 1,3,-1
 422 693 l 1,4,-1
 538 126 l 1,5,-1
 645 693 l 1,6,-1
 805 693 l 1,0,-1
215 693 m 1,7,-1
 215 0 l 1,8,-1
 55 0 l 1,9,-1
 55 693 l 1,10,-1
 215 693 l 1,7,-1
EndSplineSet
Ligature2: "roman root-1" R four
EndChar
StartChar: R5
Encoding: 164 63396 125
Width: 570
VWidth: 1000
Flags: W
LayerCount: 2
Fore
SplineSet
391 0 m 1,0,-1
 187 0 l 1,1,-1
 -13 693 l 1,2,-1
 160 693 l 1,3,-1
 292 128 l 1,4,-1
 416 693 l 1,5,-1
 584 693 l 1,6,-1
 391 0 l 1,0,-1
EndSplineSet
Validated: 1
Ligature2: "roman root-1" R five
EndChar
StartChar: R6
Encoding: 165 63397 126
Width: 805
VWidth: 1000
Flags: W
LayerCount: 2
Fore
SplineSet
751 693 m 1,0,-1
 751 0 l 1,1,-1
 591 0 l 1,2,-1
 591 693 l 1,3,-1
 751 693 l 1,0,-1
547 693 m 1,4,-1
 378 0 l 1,5,-1
 176 0 l 1,6,-1
 0 693 l 1,7,-1
 164 693 l 1,8,-1
 280 126 l 1,9,-1
 387 693 l 1,10,-1
 547 693 l 1,4,-1
EndSplineSet
Validated: 1
Ligature2: "roman root-1" R six
EndChar
StartChar: R7
Encoding: 166 63398 127
Width: 997
Flags: W
LayerCount: 2
Fore
SplineSet
950 693 m 1,0,-1
 950 0 l 1,1,-1
 793 0 l 1,2,-1
 793 693 l 1,3,-1
 950 693 l 1,0,-1
700 693 m 1,4,-1
 700 0 l 1,5,-1
 543 0 l 1,6,-1
 543 693 l 1,7,-1
 700 693 l 1,4,-1
506 693 m 1,8,-1
 358 0 l 1,9,-1
 156 0 l 1,10,-1
 0 693 l 1,11,-1
 157 693 l 1,12,-1
 259 124 l 1,13,-1
 353 693 l 1,14,-1
 506 693 l 1,8,-1
EndSplineSet
Ligature2: "roman root-1" R seven
EndChar
StartChar: rootflat
Encoding: 167 63399 146
Width: 304
VWidth: 1000
Flags: W
HStem: 325 76<150.5 171.5>
VStem: 8 55 206 97<197.5 252.5>
LayerCount: 2
Fore
SplineSet
64 40 m 0,0,1
 129 87 129 87 167.5 134.5 c 128,-1,2
 206 182 206 182 206 243 c 0,3,4
 206 258 206 258 203 273.5 c 128,-1,5
 200 289 200 289 184.5 307 c 128,-1,6
 169 325 169 325 142 325 c 0,7,8
 107 325 107 325 82 306 c 0,9,10
 62 293 62 293 57 280 c 1,11,-1
 55 33 l 1,12,13
 56 34 56 34 59 36.5 c 128,-1,14
 62 39 62 39 64 40 c 0,0,1
171 401 m 0,15,16
 234 401 234 401 268.5 359 c 128,-1,17
 303 317 303 317 303 252 c 0,18,19
 303 149 303 149 230 76.5 c 128,-1,20
 157 4 157 4 47 -41 c 1,21,-1
 44 -42 l 2,22,23
 39 -46 39 -46 31 -46 c 0,24,25
 21 -46 21 -46 14.5 -39.5 c 128,-1,26
 8 -33 8 -33 8 -23 c 2,27,-1
 0 771 l 2,28,29
 0 780 0 780 7.5 787 c 128,-1,30
 15 794 15 794 24 794 c 2,31,-1
 39 794 l 2,32,33
 49 794 49 794 56 787 c 128,-1,34
 63 780 63 780 63 770 c 2,35,-1
 58 359 l 1,36,37
 106 401 106 401 171 401 c 0,15,16
EndSplineSet
Validated: 1
Substitution2: "Single Substitution 1-1" highflat
Ligature2: "chord spec-1letter" b
EndChar
StartChar: rootnatural
Encoding: 168 63400 147
Width: 259
Flags: W
HStem: -103 888<0 259 0 209>
VStem: 0 50<214 425 550 785> 209 50<-103 134 134 134 259 469 469 469>
LayerCount: 2
Fore
SplineSet
209 469 m 1,0,-1
 50 425 l 1,1,-1
 50 214 l 1,2,-1
 209 259 l 1,3,-1
 209 469 l 1,0,-1
249 595 m 0,4,5
 259 588 259 588 259 576 c 2,6,-1
 259 -103 l 1,7,-1
 209 -103 l 1,8,-1
 209 134 l 1,9,-1
 32 84 l 2,10,11
 30 83 30 83 25 83 c 0,12,13
 14 83 14 83 7 90.5 c 128,-1,14
 0 98 0 98 0 108 c 2,15,-1
 0 785 l 1,16,-1
 50 785 l 1,17,-1
 50 550 l 1,18,-1
 227 600 l 1,19,-1
 233 600 l 2,20,21
 242 600 242 600 249 595 c 0,4,5
EndSplineSet
Substitution2: "Single Substitution 1-1" highnatural
EndChar
StartChar: rootsharp
Encoding: 169 63401 148
Width: 365
Flags: W
HStem: -83 898<66 300 66 300>
VStem: 66 49<-83 112 112 112 249 445 445 445 581 767> 251 49<287 482 482 482 620 815>
LayerCount: 2
Fore
SplineSet
251 482 m 1,0,-1
 115 455 l 1,1,-1
 115 249 l 1,2,-1
 251 277 l 1,3,-1
 251 482 l 1,0,-1
345 502 m 2,4,-1
 300 492 l 1,5,-1
 300 287 l 1,6,-1
 335 294 l 2,7,8
 337 295 337 295 340 295 c 0,9,10
 349 295 349 295 357 288 c 128,-1,11
 365 281 365 281 365 271 c 2,12,-1
 365 193 l 2,13,14
 365 173 365 173 345 169 c 2,15,-1
 299 159 l 1,16,-1
 299 -35 l 1,17,-1
 251 -35 l 1,18,-1
 251 150 l 1,19,-1
 115 122 l 1,20,-1
 115 -83 l 1,21,-1
 66 -83 l 1,22,-1
 66 112 l 1,23,-1
 29 105 l 2,24,25
 28 104 28 104 24 104 c 1,26,-1
 24 110 l 1,27,-1
 24 104 l 1,28,29
 15 104 15 104 9 110 c 0,30,31
 0 117 0 117 0 128 c 2,32,-1
 0 205 l 2,33,34
 0 213 0 213 5.5 220 c 128,-1,35
 11 227 11 227 19 229 c 2,36,-1
 66 239 l 1,37,-1
 66 445 l 1,38,-1
 29 437 l 2,39,40
 15 437 15 437 9 442 c 0,41,42
 0 451 0 451 0 461 c 2,43,-1
 0 538 l 2,44,45
 0 557 0 557 19 562 c 2,46,-1
 66 571 l 1,47,-1
 66 767 l 1,48,-1
 115 767 l 1,49,-1
 115 581 l 1,50,-1
 251 610 l 1,51,-1
 251 815 l 1,52,-1
 300 815 l 1,53,-1
 300 620 l 1,54,-1
 335 627 l 2,55,56
 336 627 336 627 338 627.5 c 2,57,-1
 340 628 l 2,58,59
 350 628 350 628 357.5 620.5 c 128,-1,60
 365 613 365 613 365 603 c 2,61,-1
 365 525 l 2,62,63
 365 506 365 506 345 502 c 2,4,-1
EndSplineSet
Substitution2: "Single Substitution 1-1" highsharp
Ligature2: "chord spec-1letter" numbersign
EndChar
StartChar: highflat
Encoding: 170 63402 149
Width: 304
Flags: W
HStem: 325 76<150.5 171.5>
VStem: 8 55 206 97<197.5 252.5>
LayerCount: 2
Fore
SplineSet
64 214 m 0,0,1
 129 261 129 261 167.5 308.5 c 128,-1,2
 206 356 206 356 206 417 c 0,3,4
 206 432 206 432 203 447.5 c 128,-1,5
 200 463 200 463 184.5 481 c 128,-1,6
 169 499 169 499 142 499 c 0,7,8
 107 499 107 499 82 480 c 0,9,10
 62 467 62 467 57 454 c 1,11,-1
 55 207 l 1,12,13
 56 208 56 208 59 210.5 c 128,-1,14
 62 213 62 213 64 214 c 0,0,1
171 575 m 0,15,16
 234 575 234 575 268.5 533 c 128,-1,17
 303 491 303 491 303 426 c 0,18,19
 303 323 303 323 230 250.5 c 128,-1,20
 157 178 157 178 47 133 c 1,21,-1
 44 132 l 2,22,23
 32 128 32 128 31 128 c 0,24,25
 21 128 21 128 14.5 134.5 c 128,-1,26
 8.13071895425 140.869281046 8.13071895425 140.869281046 8 151 c 2,27,-1
 0 771 l 2,28,29
 -0 780 -0 780 7.5 787 c 128,-1,30
 15 794 15 794 24 794 c 2,31,-1
 39 794 l 2,32,33
 49 794 49 794 56 787 c 0,34,35
 63.2066115702 779.79338843 63.2066115702 779.79338843 63 770 c 2,36,-1
 58 533 l 1,37,38
 106 575 106 575 171 575 c 0,15,16
EndSplineSet
EndChar
StartChar: highnatural
Encoding: 171 63403 150
Width: 259
VWidth: 1000
Flags: W
HStem: -103 888<0 259 0 209>
VStem: 0 50<214 425 550 785> 209 50<-103 134 134 134 259 469 469 469>
LayerCount: 2
Fore
SplineSet
209 527 m 1,0,-1
 50 483 l 1,1,-1
 50 330 l 1,2,-1
 209 375 l 1,3,-1
 209 527 l 1,0,-1
249 653 m 0,4,5
 259 646 259 646 259 634 c 2,6,-1
 259 71 l 5,7,-1
 209 71 l 5,8,-1
 209 250 l 1,9,-1
 32 200 l 2,10,11
 28 199 28 199 25 199 c 0,12,13
 14 199 14 199 7 206.5 c 128,-1,14
 0 214 0 214 0 224 c 2,15,-1
 0 785 l 1,16,-1
 50 785 l 1,17,-1
 50 608 l 1,18,-1
 227 658 l 1,19,-1
 233 658 l 2,20,21
 242 658 242 658 249 653 c 0,4,5
EndSplineSet
Validated: 1
EndChar
StartChar: highsharp
Encoding: 172 63404 151
Width: 365
Flags: W
HStem: -83 898<66 300 66 300>
VStem: 66 49<-83 112 112 112 249 445 445 445 581 767> 251 49<287 482 482 482 620 815>
LayerCount: 2
Fore
SplineSet
251 540 m 1,0,-1
 115 513 l 1,1,-1
 115 365 l 1,2,-1
 251 393 l 1,3,-1
 251 540 l 1,0,-1
345 560 m 2,4,-1
 300 550 l 1,5,-1
 300 403 l 1,6,-1
 335 410 l 2,7,8
 337 411 337 411 340 411 c 0,9,10
 349 411 349 411 357 404 c 128,-1,11
 365 397 365 397 365 387 c 2,12,-1
 365 309 l 2,13,14
 365 289.347826087 365 289.347826087 345 285 c 2,15,-1
 299 275 l 1,16,-1
 299 139 l 5,17,-1
 251 139 l 5,18,-1
 251 266 l 1,19,-1
 115 238 l 1,20,-1
 115 91 l 5,21,-1
 66 91 l 5,22,-1
 66 228 l 1,23,-1
 29 221 l 2,24,25
 28 220 28 220 24 220 c 1,26,-1
 24 226 l 1,27,-1
 24 220 l 1,28,29
 15 220 15 220 9 226 c 0,30,31
 0 233 0 233 0 244 c 2,32,-1
 0 321 l 2,33,34
 0 329 0 329 5.5 336 c 0,35,36
 11.2810218978 343.357664234 11.2810218978 343.357664234 19 345 c 2,37,-1
 66 355 l 1,38,-1
 66 503 l 1,39,-1
 29 495 l 2,40,41
 17 492 17 492 9 500 c 0,42,43
 0 509 0 509 0 519 c 2,44,-1
 0 596 l 2,45,46
 0 616.361702128 0 616.361702128 19 620 c 2,47,-1
 66 629 l 1,48,-1
 66 767 l 1,49,-1
 115 767 l 1,50,-1
 115 639 l 1,51,-1
 251 668 l 1,52,-1
 251 815 l 1,53,-1
 300 815 l 1,54,-1
 300 678 l 1,55,-1
 335 685 l 2,56,57
 336 685 336 685 338 685.5 c 2,58,-1
 340 686 l 2,59,60
 348 688 348 688 357.5 678.5 c 0,61,62
 365 671 365 671 365 661 c 2,63,-1
 365 583 l 2,64,65
 365 564 365 564 345 560 c 2,4,-1
EndSplineSet
EndChar
StartChar: highminus
Encoding: 175 63407 155
Width: 506
VWidth: 1174
Flags: W
HStem: 174 66 818 66
VStem: 1 66 645 66
LayerCount: 2
Fore
SplineSet
505 519 m 1,0,-1
 505 442 l 1,1,-1
 1 442 l 1,2,-1
 1 519 l 1,3,-1
 505 519 l 1,0,-1
EndSplineSet
Validated: 1
EndChar
StartChar: NC
Encoding: 176 63408 158
Width: 1243
VWidth: 1000
Flags: W
LayerCount: 2
Fore
SplineSet
1128.5 685 m 132,-1,1
 1171 669 1171 669 1215 633 c 5,2,-1
 1163 572 l 5,3,4
 1100 623 1100 623 1030 623 c 4,5,6
 944 623 944 623 891.5 557 c 132,-1,7
 839 491 839 491 839 345 c 4,8,9
 839 203 839 203 891 135.5 c 132,-1,10
 943 68 943 68 1029 68 c 4,11,12
 1073 68 1073 68 1106 83 c 132,-1,13
 1139 98 1139 98 1176 125 c 5,14,-1
 1223 65 l 5,15,16
 1191 32 1191 32 1141 10 c 132,-1,17
 1091 -12 1091 -12 1026 -12 c 4,18,19
 942 -12 942 -12 876.5 29.5 c 132,-1,20
 811 71 811 71 774.5 151.5 c 132,-1,21
 738 232 738 232 738 345 c 260,22,23
 738 458 738 458 776 538.5 c 132,-1,24
 814 619 814 619 879 660 c 132,-1,25
 944 701 944 701 1024 701 c 4,26,0
 1086 701 1086 701 1128.5 685 c 132,-1,1
583 0 m 1,27,-1
 456 0 l 1,28,-1
 176 585 l 1,29,30
 182 516 182 516 185.5 457.5 c 128,-1,31
 189 399 189 399 189 316 c 2,32,-1
 189 0 l 1,33,-1
 100 0 l 1,34,-1
 100 689 l 1,35,-1
 224 689 l 1,36,-1
 507 103 l 1,37,38
 504 129 504 129 499 194 c 128,-1,39
 494 259 494 259 494 313 c 2,40,-1
 494 689 l 1,41,-1
 583 689 l 1,42,-1
 583 0 l 1,27,-1
EndSplineSet
Validated: 1
Ligature2: "chord spec-2letters" N C
EndChar
StartChar: r1
Encoding: 185 63417 163
Width: 280
Flags: W
LayerCount: 2
Fore
SplineSet
206.5 785.5 m 132,-1,1
 233 760 233 760 233 721 c 260,2,3
 233 682 233 682 206.5 656.5 c 132,-1,4
 180 631 180 631 139 631 c 260,5,6
 98 631 98 631 72 656.5 c 132,-1,7
 46 682 46 682 46 721 c 260,8,9
 46 760 46 760 72 785.5 c 132,-1,10
 98 811 98 811 139 811 c 260,11,0
 180 811 180 811 206.5 785.5 c 132,-1,1
219 0 m 5,12,-1
 61 0 l 5,13,-1
 61 531 l 5,14,-1
 219 531 l 5,15,-1
 219 0 l 5,12,-1
EndSplineSet
Ligature2: "roman root-1" r one
EndChar
StartChar: r2
Encoding: 186 63418 166
Width: 518
Flags: W
LayerCount: 2
Fore
SplineSet
451.5 783 m 128,-1,1
 477 758 477 758 477 721 c 0,2,3
 477 683 477 683 451.5 658 c 128,-1,4
 426 633 426 633 387 633 c 256,5,6
 348 633 348 633 323 658 c 128,-1,7
 298 683 298 683 298 721 c 0,8,9
 298 758 298 758 323 783 c 128,-1,10
 348 808 348 808 387 808 c 256,11,0
 426 808 426 808 451.5 783 c 128,-1,1
465 531 m 1,12,-1
 465 0 l 1,13,-1
 311 0 l 1,14,-1
 311 531 l 1,15,-1
 465 531 l 1,12,-1
192.5 783 m 128,-1,17
 218 758 218 758 218 721 c 0,18,19
 218 683 218 683 192.5 658 c 128,-1,20
 167 633 167 633 128 633 c 256,21,22
 89 633 89 633 64 658 c 128,-1,23
 39 683 39 683 39 721 c 0,24,25
 39 758 39 758 64 783 c 128,-1,26
 89 808 89 808 128 808 c 256,27,16
 167 808 167 808 192.5 783 c 128,-1,17
206 531 m 1,28,-1
 206 0 l 1,29,-1
 52 0 l 1,30,-1
 52 531 l 1,31,-1
 206 531 l 1,28,-1
EndSplineSet
Ligature2: "roman root-1" r two
EndChar
StartChar: r3
Encoding: 187 63419 165
Width: 720
Flags: W
LayerCount: 2
Fore
SplineSet
661.5 782.5 m 128,-1,1
 685 758 685 758 685 720 c 0,2,3
 685 683 685 683 661 658.5 c 128,-1,4
 637 634 637 634 599 634 c 256,5,6
 561 634 561 634 537 658.5 c 128,-1,7
 513 683 513 683 513 720 c 0,8,9
 513 758 513 758 537 782.5 c 128,-1,10
 561 807 561 807 599 807 c 0,11,0
 638 807 638 807 661.5 782.5 c 128,-1,1
676 531 m 1,12,-1
 676 0 l 1,13,-1
 525 0 l 1,14,-1
 525 531 l 1,15,-1
 676 531 l 1,12,-1
421.5 782.5 m 132,-1,17
 445 758 445 758 445 720 c 4,18,19
 445 683 445 683 421 658.5 c 132,-1,20
 397 634 397 634 359 634 c 260,21,22
 321 634 321 634 297 658.5 c 132,-1,23
 273 683 273 683 273 720 c 4,24,25
 273 758 273 758 297 782.5 c 132,-1,26
 321 807 321 807 359 807 c 4,27,16
 398 807 398 807 421.5 782.5 c 132,-1,17
436 531 m 5,28,-1
 436 0 l 5,29,-1
 285 0 l 5,30,-1
 285 531 l 5,31,-1
 436 531 l 5,28,-1
181.5 782.5 m 132,-1,33
 205 758 205 758 205 720 c 4,34,35
 205 683 205 683 181 658.5 c 132,-1,36
 157 634 157 634 119 634 c 260,37,38
 81 634 81 634 57 658.5 c 132,-1,39
 33 683 33 683 33 720 c 4,40,41
 33 758 33 758 57 782.5 c 132,-1,42
 81 807 81 807 119 807 c 4,43,32
 158 807 158 807 181.5 782.5 c 132,-1,33
196 531 m 5,44,-1
 196 0 l 5,45,-1
 45 0 l 5,46,-1
 45 531 l 5,47,-1
 196 531 l 5,44,-1
EndSplineSet
Ligature2: "roman root-1" r three
EndChar
StartChar: r4
Encoding: 188 63420 167
Width: 735
Flags: W
LayerCount: 2
Fore
SplineSet
735 531 m 1,0,-1
 587 0 l 1,1,-1
 405 0 l 1,2,-1
 254 531 l 1,3,-1
 415 531 l 1,4,-1
 497 117 l 1,5,-1
 582 531 l 1,6,-1
 735 531 l 1,0,-1
192.5 783 m 128,-1,8
 218 758 218 758 218 721 c 0,9,10
 218 683 218 683 192.5 658 c 128,-1,11
 167 633 167 633 128 633 c 256,12,13
 89 633 89 633 64 658 c 128,-1,14
 39 683 39 683 39 721 c 0,15,16
 39 758 39 758 64 783 c 128,-1,17
 89 808 89 808 128 808 c 256,18,7
 167 808 167 808 192.5 783 c 128,-1,8
206 531 m 1,19,-1
 206 0 l 1,20,-1
 52 0 l 1,21,-1
 52 531 l 1,22,-1
 206 531 l 1,19,-1
EndSplineSet
Ligature2: "roman root-1" r four
EndChar
StartChar: r5
Encoding: 189 63421 164
Width: 513
VWidth: 1000
Flags: W
LayerCount: 2
Fore
SplineSet
352 0 m 1,0,-1
 165 0 l 1,1,-1
 -6 531 l 1,2,-1
 166 531 l 1,3,-1
 260 120 l 1,4,-1
 358 531 l 1,5,-1
 519 531 l 1,6,-1
 352 0 l 1,0,-1
EndSplineSet
Validated: 1
Ligature2: "roman root-1" r five
EndChar
StartChar: r6
Encoding: 190 63422 168
Width: 734
VWidth: 1000
Flags: W
LayerCount: 2
Fore
SplineSet
481 531 m 1,0,-1
 333 0 l 1,1,-1
 151 0 l 1,2,-1
 0 531 l 1,3,-1
 161 531 l 1,4,-1
 243 117 l 1,5,-1
 328 531 l 1,6,-1
 481 531 l 1,0,-1
667.5 783 m 128,-1,8
 693 758 693 758 693 721 c 0,9,10
 693 683 693 683 667.5 658 c 128,-1,11
 642 633 642 633 603 633 c 256,12,13
 564 633 564 633 539 658 c 128,-1,14
 514 683 514 683 514 721 c 0,15,16
 514 758 514 758 539 783 c 128,-1,17
 564 808 564 808 603 808 c 256,18,7
 642 808 642 808 667.5 783 c 128,-1,8
681 531 m 1,19,-1
 681 0 l 1,20,-1
 527 0 l 1,21,-1
 527 531 l 1,22,-1
 681 531 l 1,19,-1
EndSplineSet
Validated: 1
Ligature2: "roman root-1" r six
EndChar
StartChar: r7
Encoding: 191 63423 169
Width: 921
Flags: W
LayerCount: 2
Fore
SplineSet
862.5 782.5 m 128,-1,1
 886 758 886 758 886 720 c 0,2,3
 886 683 886 683 862 658.5 c 128,-1,4
 838 634 838 634 800 634 c 256,5,6
 762 634 762 634 738 658.5 c 128,-1,7
 714 683 714 683 714 720 c 0,8,9
 714 758 714 758 738 782.5 c 128,-1,10
 762 807 762 807 800 807 c 0,11,0
 839 807 839 807 862.5 782.5 c 128,-1,1
877 531 m 1,12,-1
 877 0 l 1,13,-1
 726 0 l 1,14,-1
 726 531 l 1,15,-1
 877 531 l 1,12,-1
622.5 782.5 m 128,-1,17
 646 758 646 758 646 720 c 0,18,19
 646 683 646 683 622 658.5 c 128,-1,20
 598 634 598 634 560 634 c 256,21,22
 522 634 522 634 498 658.5 c 128,-1,23
 474 683 474 683 474 720 c 0,24,25
 474 758 474 758 498 782.5 c 128,-1,26
 522 807 522 807 560 807 c 0,27,16
 599 807 599 807 622.5 782.5 c 128,-1,17
637 531 m 1,28,-1
 637 0 l 1,29,-1
 486 0 l 1,30,-1
 486 531 l 1,31,-1
 637 531 l 1,28,-1
446 531 m 1,32,-1
 314 0 l 1,33,-1
 136 0 l 1,34,-1
 0 531 l 1,35,-1
 154 531 l 1,36,-1
 225 115 l 1,37,-1
 300 531 l 1,38,-1
 446 531 l 1,32,-1
EndSplineSet
Ligature2: "roman root-1" r seven
EndChar
StartChar: M_2
Encoding: 224 63456 133
Width: 711
VWidth: 1000
Flags: W
LayerCount: 2
Fore
SplineSet
656 0 m 1,0,-1
 567 0 l 1,1,-1
 546 311 l 2,2,3
 532 520 532 520 531 599 c 1,4,-1
 399 78 l 1,5,-1
 312 78 l 1,6,-1
 174 599 l 1,7,8
 174 512 174 512 163 309 c 2,9,-1
 143 0 l 1,10,-1
 55 0 l 1,11,-1
 108 688 l 1,12,-1
 229 688 l 1,13,-1
 357 179 l 1,14,-1
 480 688 l 1,15,-1
 603 688 l 1,16,-1
 656 0 l 1,0,-1
EndSplineSet
Validated: 1
EndChar
StartChar: m_2
Encoding: 225 63457 134
Width: 769
Flags: W
LayerCount: 2
Fore
SplineSet
658 496.5 m 128,-1,1
 692 454 692 454 692 383 c 2,2,-1
 692 0 l 1,3,-1
 603 0 l 1,4,-1
 603 373 l 2,5,6
 603 469 603 469 541 469 c 0,7,8
 481 469 481 469 431 377 c 1,9,-1
 431 0 l 1,10,-1
 342 0 l 1,11,-1
 342 373 l 2,12,13
 342 469 342 469 280 469 c 0,14,15
 219 469 219 469 170 377 c 1,16,-1
 170 0 l 1,17,-1
 81 0 l 1,18,-1
 81 526 l 1,19,-1
 159 526 l 1,20,-1
 166 449 l 1,21,22
 224 539 224 539 306 539 c 0,23,24
 349 539 349 539 379 514 c 128,-1,25
 409 489 409 489 422 443 c 1,26,27
 483 539 483 539 567 539 c 0,28,0
 624 539 624 539 658 496.5 c 128,-1,1
EndSplineSet
EndChar
StartChar: m_3
Encoding: 226 63458 135
Width: 703
Flags: W
LayerCount: 2
Fore
SplineSet
602 496.5 m 128,-1,1
 634 455 634 455 634 387 c 2,2,-1
 634 0 l 1,3,-1
 548 0 l 1,4,-1
 548 376 l 2,5,6
 548 426 548 426 534.5 448 c 128,-1,7
 521 470 521 470 495 470 c 0,8,9
 442 470 442 470 397 376 c 1,10,-1
 397 0 l 1,11,-1
 311 0 l 1,12,-1
 311 376 l 2,13,14
 311 470 311 470 258 470 c 0,15,16
 230 470 230 470 204.5 445 c 128,-1,17
 179 420 179 420 159 376 c 1,18,-1
 159 0 l 1,19,-1
 73 0 l 1,20,-1
 73 527 l 1,21,-1
 149 527 l 1,22,-1
 155 451 l 1,23,24
 205 538 205 538 280 538 c 0,25,26
 320 538 320 538 347.5 513.5 c 128,-1,27
 375 489 375 489 387 444 c 1,28,29
 441 538 441 538 517 538 c 0,30,0
 570 538 570 538 602 496.5 c 128,-1,1
EndSplineSet
EndChar
StartChar: u_3
Encoding: 227 63459 136
Width: 479
VWidth: 1000
Flags: W
LayerCount: 2
Fore
SplineSet
406 0 m 1,0,-1
 330 0 l 1,1,-1
 324 74 l 1,2,3
 299 31 299 31 267.5 9.5 c 128,-1,4
 236 -12 236 -12 194 -12 c 0,5,6
 137 -12 137 -12 103 27 c 128,-1,7
 69 66 69 66 69 129 c 2,8,-1
 69 527 l 1,9,-1
 157 527 l 1,10,-1
 157 138 l 2,11,12
 157 57 157 57 214 57 c 0,13,14
 247 57 247 57 272 80.5 c 128,-1,15
 297 104 297 104 318 146 c 1,16,-1
 318 527 l 1,17,-1
 406 527 l 1,18,-1
 406 0 l 1,0,-1
EndSplineSet
Validated: 1
EndChar
StartChar: a_2
Encoding: 228 63460 137
Width: 490
Flags: W
LayerCount: 2
Fore
SplineSet
418 72.5 m 128,-1,1
 427 57 427 57 446 49 c 1,2,-1
 427 -12 l 1,3,4
 388 -6 388 -6 366 12 c 128,-1,5
 344 30 344 30 335 67 c 1,6,7
 284 -13 284 -13 192 -13 c 0,8,9
 122 -13 122 -13 81 30.5 c 128,-1,10
 40 74 40 74 40 147 c 0,11,12
 40 231 40 231 95 275 c 128,-1,13
 150 319 150 319 252 319 c 2,14,-1
 320 319 l 1,15,-1
 320 364 l 2,16,17
 320 419 320 419 297.5 443.5 c 128,-1,18
 275 468 275 468 224 468 c 0,19,20
 169 468 169 468 96 440 c 1,21,-1
 74 503 l 1,22,23
 162 539 162 539 238 539 c 0,24,25
 409 539 409 539 409 368 c 2,26,-1
 409 120 l 2,27,0
 409 88 409 88 418 72.5 c 128,-1,1
320 137 m 1,29,-1
 320 261 l 1,30,-1
 262 261 l 2,31,32
 132 261 132 261 132 152 c 0,33,34
 132 105 132 105 153 80 c 128,-1,35
 174 55 174 55 213 55 c 0,36,28
 283 55 283 55 320 137 c 1,29,-1
EndSplineSet
EndChar
StartChar: a_3
Encoding: 229 63461 138
Width: 451
Flags: W
LayerCount: 2
Fore
SplineSet
385 70.5 m 128,-1,1
 393 57 393 57 411 49 c 1,2,-1
 392 -12 l 1,3,4
 355 -6 355 -6 333.5 11.5 c 128,-1,5
 312 29 312 29 303 64 c 1,6,7
 260 -12 260 -12 177 -12 c 0,8,9
 112 -12 112 -12 73.5 31.5 c 128,-1,10
 35 75 35 75 35 147 c 0,11,12
 35 231 35 231 87 275.5 c 128,-1,13
 139 320 139 320 238 320 c 2,14,-1
 290 320 l 1,15,-1
 290 368 l 2,16,17
 290 420 290 420 269.5 444 c 128,-1,18
 249 468 249 468 206 468 c 0,19,20
 155 468 155 468 87 441 c 1,21,-1
 65 503 l 1,22,23
 146 538 146 538 217 538 c 0,24,25
 298 538 298 538 337.5 494.5 c 128,-1,26
 377 451 377 451 377 372 c 2,27,-1
 377 112 l 2,28,0
 377 84 377 84 385 70.5 c 128,-1,1
290 138 m 1,30,-1
 290 261 l 1,31,-1
 248 261 l 2,32,33
 185 261 185 261 155.5 234 c 128,-1,34
 126 207 126 207 126 151 c 0,35,36
 126 103 126 103 144 78.5 c 128,-1,37
 162 54 162 54 195 54 c 0,38,29
 257 54 257 54 290 138 c 1,30,-1
EndSplineSet
EndChar
StartChar: i_2
Encoding: 230 63462 139
Width: 252
VWidth: 1000
Flags: W
LayerCount: 2
Fore
SplineSet
168.5 757 m 132,-1,1
 185 740 185 740 185 715 c 260,2,3
 185 690 185 690 169 673.5 c 132,-1,4
 153 657 153 657 126 657 c 4,5,6
 100 657 100 657 83.5 673.5 c 132,-1,7
 67 690 67 690 67 715 c 260,8,9
 67 740 67 740 83.5 757 c 132,-1,10
 100 774 100 774 126 774 c 260,11,0
 152 774 152 774 168.5 757 c 132,-1,1
171 526 m 5,12,-1
 171 0 l 5,13,-1
 81 0 l 5,14,-1
 81 526 l 5,15,-1
 171 526 l 5,12,-1
EndSplineSet
Validated: 1
EndChar
StartChar: i_3
Encoding: 231 63463 140
Width: 234
Flags: W
LayerCount: 2
Fore
SplineSet
159 760 m 132,-1,1
 175 743 175 743 175 716 c 4,2,3
 175 691 175 691 158.5 674 c 132,-1,4
 142 657 142 657 116 657 c 260,5,6
 90 657 90 657 73.5 674 c 132,-1,7
 57 691 57 691 57 716 c 4,8,9
 57 742 57 742 73.5 759.5 c 132,-1,10
 90 777 90 777 116 777 c 4,11,0
 143 777 143 777 159 760 c 132,-1,1
161 527 m 5,12,-1
 161 0 l 5,13,-1
 73 0 l 5,14,-1
 73 527 l 5,15,-1
 161 527 l 5,12,-1
EndSplineSet
EndChar
StartChar: j_3
Encoding: 232 63464 141
Width: 234
Flags: W
LayerCount: 2
Fore
SplineSet
159 760 m 132,-1,1
 175 743 175 743 175 716 c 4,2,3
 175 691 175 691 158.5 674 c 132,-1,4
 142 657 142 657 116 657 c 260,5,6
 90 657 90 657 73.5 674 c 132,-1,7
 57 691 57 691 57 716 c 4,8,9
 57 742 57 742 73.5 759.5 c 132,-1,10
 90 777 90 777 116 777 c 4,11,0
 143 777 143 777 159 760 c 132,-1,1
161 10 m 6,12,13
 161 -51 161 -51 144.5 -91 c 132,-1,14
 128 -131 128 -131 97.5 -157.5 c 132,-1,15
 67 -184 67 -184 15 -211 c 5,16,-1
 -13 -149 l 5,17,18
 19 -130 19 -130 36.5 -112.5 c 132,-1,19
 54 -95 54 -95 63.5 -66.5 c 132,-1,20
 73 -38 73 -38 73 9 c 6,21,-1
 73 527 l 5,22,-1
 161 527 l 5,23,-1
 161 10 l 6,12,13
EndSplineSet
EndChar
StartChar: n_3
Encoding: 233 63465 142
Width: 482
Flags: W
LayerCount: 2
Fore
SplineSet
379 497 m 128,-1,1
 413 456 413 456 413 387 c 2,2,-1
 413 0 l 1,3,-1
 325 0 l 1,4,-1
 325 375 l 2,5,6
 325 426 325 426 310.5 447.5 c 128,-1,7
 296 469 296 469 267 469 c 0,8,9
 210 469 210 469 161 371 c 1,10,-1
 161 0 l 1,11,-1
 73 0 l 1,12,-1
 73 527 l 1,13,-1
 149 527 l 1,14,-1
 156 448 l 1,15,16
 182 492 182 492 213 515 c 128,-1,17
 244 538 244 538 288 538 c 0,18,0
 345 538 345 538 379 497 c 128,-1,1
EndSplineSet
EndChar
StartChar: g_3
Encoding: 234 63466 143
Width: 434
Flags: W
LayerCount: 2
Fore
SplineSet
432 504 m 1,0,1
 409 494 409 494 380.5 491 c 128,-1,2
 352 488 352 488 308 488 c 1,3,4
 385 446 385 446 385 354 c 0,5,6
 385 273 385 273 340 224.5 c 128,-1,7
 295 176 295 176 216 176 c 0,8,9
 187 176 187 176 163 186 c 1,10,11
 153 178 153 178 147.5 164.5 c 128,-1,12
 142 151 142 151 142 136 c 0,13,14
 142 114 142 114 154 101.5 c 128,-1,15
 166 89 166 89 197 89 c 2,16,-1
 255 89 l 2,17,18
 304 89 304 89 341 70 c 128,-1,19
 378 51 378 51 397.5 18.5 c 128,-1,20
 417 -14 417 -14 417 -53 c 0,21,22
 417 -125 417 -125 363.5 -168.5 c 128,-1,23
 310 -212 310 -212 209 -212 c 0,24,25
 105 -212 105 -212 61.5 -171.5 c 128,-1,26
 18 -131 18 -131 18 -53 c 1,27,-1
 96 -53 l 1,28,29
 96 -102 96 -102 120 -122.5 c 128,-1,30
 144 -143 144 -143 210 -143 c 0,31,32
 274 -143 274 -143 302 -121.5 c 128,-1,33
 330 -100 330 -100 330 -59 c 0,34,35
 330 19 330 19 238 19 c 2,36,-1
 201 19 l 2,37,38
 129 19 129 19 96 45.5 c 128,-1,39
 63 72 63 72 63 117 c 0,40,41
 63 165 63 165 115 207 c 1,42,43
 38 254 38 254 38 355 c 0,44,45
 38 438 38 438 87 488 c 128,-1,46
 136 538 136 538 214 538 c 0,47,48
 284 538 284 538 324 549 c 128,-1,49
 364 560 364 560 406 583 c 1,50,-1
 432 504 l 1,0,1
147 446 m 128,-1,52
 125 417 125 417 125 355 c 0,53,54
 125 301 125 301 148 268 c 128,-1,55
 171 235 171 235 212 235 c 0,56,57
 256 235 256 235 277 263 c 128,-1,58
 298 291 298 291 298 356 c 0,59,60
 298 475 298 475 213 475 c 0,61,51
 169 475 169 475 147 446 c 128,-1,52
EndSplineSet
EndChar
StartChar: d_3
Encoding: 235 63467 144
Width: 491
Flags: W
LayerCount: 2
Fore
SplineSet
418 739 m 1,0,-1
 418 0 l 1,1,-1
 340 0 l 1,2,-1
 334 67 l 1,3,4
 287 -12 287 -12 214 -12 c 0,5,6
 132 -12 132 -12 88.5 60.5 c 128,-1,7
 45 133 45 133 45 261 c 0,8,9
 45 344 45 344 67 407 c 128,-1,10
 89 470 89 470 128 504 c 128,-1,11
 167 538 167 538 217 538 c 0,12,13
 286 538 286 538 330 477 c 1,14,-1
 330 749 l 1,15,-1
 418 739 l 1,0,-1
330 133 m 1,17,-1
 330 400 l 1,18,19
 289 468 289 468 235 468 c 0,20,21
 189 468 189 468 163.5 418 c 128,-1,22
 138 368 138 368 138 263 c 0,23,24
 138 58 138 58 231 58 c 0,25,16
 288 58 288 58 330 133 c 1,17,-1
EndSplineSet
EndChar
StartChar: s_3
Encoding: 236 63468 152
Width: 393
Flags: W
LayerCount: 2
Fore
SplineSet
350 479 m 1,1,-1
 312 428 l 1,2,3
 284 449 284 449 258 459.5 c 128,-1,4
 232 470 232 470 203 470 c 0,5,6
 168 470 168 470 147.5 450.5 c 128,-1,7
 127 431 127 431 127 397 c 0,8,9
 127 364 127 364 147 345 c 128,-1,10
 167 326 167 326 223 306 c 0,11,12
 295 280 295 280 329 244 c 128,-1,13
 363 208 363 208 363 146 c 0,14,15
 363 71 363 71 312.5 29.5 c 128,-1,16
 262 -12 262 -12 187 -12 c 0,17,18
 87 -12 87 -12 20 57 c 1,19,-1
 66 106 l 1,20,21
 122 57 122 57 185 57 c 0,22,23
 225 57 225 57 249 79 c 128,-1,24
 273 101 273 101 273 141 c 0,25,26
 273 168 273 168 264 185 c 128,-1,27
 255 202 255 202 233 216 c 128,-1,28
 211 230 211 230 169 245 c 0,29,30
 99 271 99 271 69 306.5 c 128,-1,31
 39 342 39 342 39 394 c 0,32,33
 39 434 39 434 59.5 467 c 128,-1,34
 80 500 80 500 117 519 c 128,-1,35
 154 538 154 538 201 538 c 0,36,0
 288 538 288 538 350 479 c 1,1,-1
EndSplineSet
EndChar
StartChar: o_3
Encoding: 237 63469 156
Width: 485
Flags: W
LayerCount: 2
Fore
SplineSet
388.5 468.5 m 128,-1,1
 440 399 440 399 440 264 c 0,2,3
 440 137 440 137 387.5 62.5 c 128,-1,4
 335 -12 335 -12 242 -12 c 256,5,6
 149 -12 149 -12 97 61 c 128,-1,7
 45 134 45 134 45 263 c 0,8,9
 45 396 45 396 97 467 c 128,-1,10
 149 538 149 538 243 538 c 256,11,0
 337 538 337 538 388.5 468.5 c 128,-1,1
164 419.5 m 128,-1,13
 138 372 138 372 138 263 c 0,14,15
 138 155 138 155 164 107 c 128,-1,16
 190 59 190 59 242 59 c 0,17,18
 295 59 295 59 321 107 c 128,-1,19
 347 155 347 155 347 264 c 0,20,21
 347 372 347 372 321 419.5 c 128,-1,22
 295 467 295 467 243 467 c 0,23,12
 190 467 190 467 164 419.5 c 128,-1,13
EndSplineSet
EndChar
StartChar: t_3
Encoding: 238 63470 157
Width: 306
Flags: W
LayerCount: 2
Fore
SplineSet
306 24 m 1,0,1
 261 -12 261 -12 205 -12 c 0,2,3
 146 -12 146 -12 113.5 23 c 128,-1,4
 81 58 81 58 81 117 c 2,5,-1
 81 458 l 1,6,-1
 10 458 l 1,7,-1
 10 527 l 1,8,-1
 81 527 l 1,9,-1
 81 646 l 1,10,-1
 169 657 l 1,11,-1
 169 527 l 1,12,-1
 271 527 l 1,13,-1
 262 458 l 1,14,-1
 169 458 l 1,15,-1
 169 116 l 2,16,17
 169 61 169 61 216 61 c 0,18,19
 232 61 232 61 244 65 c 128,-1,20
 256 69 256 69 272 79 c 1,21,-1
 306 24 l 1,0,1
EndSplineSet
EndChar
StartChar: n_2
Encoding: 239 63471 161
Width: 527
VWidth: 1000
Flags: W
LayerCount: 2
Fore
SplineSet
414.5 497.5 m 128,-1,1
 450 456 450 456 450 383 c 2,2,-1
 450 0 l 1,3,-1
 360 0 l 1,4,-1
 360 372 l 2,5,6
 360 423 360 423 343 445.5 c 128,-1,7
 326 468 326 468 291 468 c 0,8,9
 225 468 225 468 171 374 c 1,10,-1
 171 0 l 1,11,-1
 81 0 l 1,12,-1
 81 526 l 1,13,-1
 159 526 l 1,14,-1
 166 448 l 1,15,16
 227 539 227 539 316 539 c 0,17,0
 379 539 379 539 414.5 497.5 c 128,-1,1
EndSplineSet
Validated: 1
EndChar
StartChar: o_2
Encoding: 240 63472 162
Width: 526
Flags: W
LayerCount: 2
Fore
SplineSet
421 468 m 128,-1,1
 477 397 477 397 477 264 c 0,2,3
 477 136 477 136 420 61.5 c 128,-1,4
 363 -13 363 -13 263 -13 c 0,5,6
 162 -13 162 -13 105.5 60 c 128,-1,7
 49 133 49 133 49 263 c 0,8,9
 49 394 49 394 106 466.5 c 128,-1,10
 163 539 163 539 264 539 c 256,11,0
 365 539 365 539 421 468 c 128,-1,1
174 417.5 m 128,-1,13
 143 368 143 368 143 263 c 0,14,15
 143 58 143 58 263 58 c 256,16,17
 383 58 383 58 383 264 c 0,18,19
 383 369 383 369 353 418 c 128,-1,20
 323 467 323 467 264 467 c 256,21,12
 205 467 205 467 174 417.5 c 128,-1,13
EndSplineSet
EndChar
